<?xml version="1.0" encoding="UTF-8" standalone="no"?>
<!DOCTYPE svg PUBLIC "-//W3C//DTD SVG 1.1//EN"
 "http://www.w3.org/Graphics/SVG/1.1/DTD/svg11.dtd">
<!-- Generated by graphviz version 2.38.0 (20140413.2041)
 -->
<!-- Title: controllers_diagram Pages: 1 -->
<svg width="917pt" height="904pt"
 viewBox="0.00 0.00 916.89 903.81" xmlns="http://www.w3.org/2000/svg" xmlns:xlink="http://www.w3.org/1999/xlink">
<g id="graph0" class="graph" transform="scale(1 1) rotate(0) translate(378.45 525.5)">
<title>controllers_diagram</title>
<polygon fill="white" stroke="none" points="-378.45,378.307 -378.45,-525.5 538.438,-525.5 538.438,378.307 -378.45,378.307"/>
<!-- _diagram_info -->
<g id="node1" class="node"><title>_diagram_info</title>
<text text-anchor="start" x="-366.45" y="-501.1" font-family="Times,serif" font-size="13.00">Controllers diagram</text>
<text text-anchor="start" x="-366.45" y="-488.1" font-family="Times,serif" font-size="13.00">Date: Jul 10 2014 &#45; 07:57</text>
<text text-anchor="start" x="-366.45" y="-475.1" font-family="Times,serif" font-size="13.00">Migration version: 20140622160911</text>
<text text-anchor="start" x="-366.45" y="-462.1" font-family="Times,serif" font-size="13.00">Generated by RailRoady 1.1.1</text>
<text text-anchor="start" x="-366.45" y="-449.1" font-family="Times,serif" font-size="13.00">http://railroady.prestonlee.com</text>
</g>
<!-- Admin::PublicationsController -->
<g id="node2" class="node"><title>Admin::PublicationsController</title>
<path fill="none" stroke="black" d="M318.283,67C318.283,67 483.717,67 483.717,67 489.717,67 495.717,61 495.717,55 495.717,55 495.717,-179 495.717,-179 495.717,-185 489.717,-191 483.717,-191 483.717,-191 318.283,-191 318.283,-191 312.283,-191 306.283,-185 306.283,-179 306.283,-179 306.283,55 306.283,55 306.283,61 312.283,67 318.283,67"/>
<text text-anchor="middle" x="401" y="-175.8" font-family="Times,serif" font-size="14.00">Admin::PublicationsController</text>
<polyline fill="none" stroke="black" points="306.283,-169 495.717,-169 "/>
<text text-anchor="start" x="314.283" y="-153.8" font-family="Times,serif" font-size="14.00">create</text>
<text text-anchor="start" x="314.283" y="-139.8" font-family="Times,serif" font-size="14.00">destroy</text>
<text text-anchor="start" x="314.283" y="-125.8" font-family="Times,serif" font-size="14.00">edit</text>
<text text-anchor="start" x="314.283" y="-111.8" font-family="Times,serif" font-size="14.00">index</text>
<text text-anchor="start" x="314.283" y="-97.8" font-family="Times,serif" font-size="14.00">new</text>
<text text-anchor="start" x="314.283" y="-83.8" font-family="Times,serif" font-size="14.00">show</text>
<text text-anchor="start" x="314.283" y="-69.8" font-family="Times,serif" font-size="14.00">update</text>
<polyline fill="none" stroke="black" points="306.283,-63 495.717,-63 "/>
<polyline fill="none" stroke="black" points="306.283,-39 495.717,-39 "/>
<text text-anchor="start" x="314.283" y="-23.8" font-family="Times,serif" font-size="14.00">_layout</text>
<text text-anchor="start" x="314.283" y="-9.8" font-family="Times,serif" font-size="14.00">add_publication</text>
<text text-anchor="start" x="314.283" y="4.2" font-family="Times,serif" font-size="14.00">obtain_the_publication_list</text>
<text text-anchor="start" x="314.283" y="18.2" font-family="Times,serif" font-size="14.00">publication_params</text>
<text text-anchor="start" x="314.283" y="32.2" font-family="Times,serif" font-size="14.00">register_publication</text>
<text text-anchor="start" x="314.283" y="46.2" font-family="Times,serif" font-size="14.00">set_library_to_params</text>
<text text-anchor="start" x="314.283" y="60.2" font-family="Times,serif" font-size="14.00">set_publication</text>
</g>
<!-- Admin::SessionsController -->
<g id="node3" class="node"><title>Admin::SessionsController</title>
<path fill="none" stroke="black" d="M-90.2241,-375C-90.2241,-375 54.2241,-375 54.2241,-375 60.2241,-375 66.2241,-381 66.2241,-387 66.2241,-387 66.2241,-509 66.2241,-509 66.2241,-515 60.2241,-521 54.2241,-521 54.2241,-521 -90.2241,-521 -90.2241,-521 -96.2241,-521 -102.224,-515 -102.224,-509 -102.224,-509 -102.224,-387 -102.224,-387 -102.224,-381 -96.2241,-375 -90.2241,-375"/>
<text text-anchor="middle" x="-18" y="-505.8" font-family="Times,serif" font-size="14.00">Admin::SessionsController</text>
<polyline fill="none" stroke="black" points="-102.224,-499 66.2241,-499 "/>
<text text-anchor="start" x="-94.2241" y="-483.8" font-family="Times,serif" font-size="14.00">create</text>
<text text-anchor="start" x="-94.2241" y="-469.8" font-family="Times,serif" font-size="14.00">destroy</text>
<text text-anchor="start" x="-94.2241" y="-455.8" font-family="Times,serif" font-size="14.00">go_to_staff</text>
<text text-anchor="start" x="-94.2241" y="-441.8" font-family="Times,serif" font-size="14.00">new</text>
<text text-anchor="start" x="-94.2241" y="-427.8" font-family="Times,serif" font-size="14.00">subdomain_login_id</text>
<polyline fill="none" stroke="black" points="-102.224,-421 66.2241,-421 "/>
<polyline fill="none" stroke="black" points="-102.224,-397 66.2241,-397 "/>
<text text-anchor="start" x="-94.2241" y="-381.8" font-family="Times,serif" font-size="14.00">_layout</text>
</g>
<!-- Admin::StaffsController -->
<g id="node4" class="node"><title>Admin::StaffsController</title>
<path fill="none" stroke="black" d="M317.562,-239C317.562,-239 488.438,-239 488.438,-239 494.438,-239 500.438,-245 500.438,-251 500.438,-251 500.438,-471 500.438,-471 500.438,-477 494.438,-483 488.438,-483 488.438,-483 317.562,-483 317.562,-483 311.562,-483 305.562,-477 305.562,-471 305.562,-471 305.562,-251 305.562,-251 305.562,-245 311.562,-239 317.562,-239"/>
<text text-anchor="middle" x="403" y="-467.8" font-family="Times,serif" font-size="14.00">Admin::StaffsController</text>
<polyline fill="none" stroke="black" points="305.562,-461 500.438,-461 "/>
<text text-anchor="start" x="313.562" y="-445.8" font-family="Times,serif" font-size="14.00">create</text>
<text text-anchor="start" x="313.562" y="-431.8" font-family="Times,serif" font-size="14.00">destroy</text>
<text text-anchor="start" x="313.562" y="-417.8" font-family="Times,serif" font-size="14.00">edit</text>
<text text-anchor="start" x="313.562" y="-403.8" font-family="Times,serif" font-size="14.00">index</text>
<text text-anchor="start" x="313.562" y="-389.8" font-family="Times,serif" font-size="14.00">new</text>
<text text-anchor="start" x="313.562" y="-375.8" font-family="Times,serif" font-size="14.00">show</text>
<text text-anchor="start" x="313.562" y="-361.8" font-family="Times,serif" font-size="14.00">update</text>
<polyline fill="none" stroke="black" points="305.562,-355 500.438,-355 "/>
<polyline fill="none" stroke="black" points="305.562,-331 500.438,-331 "/>
<text text-anchor="start" x="313.562" y="-315.8" font-family="Times,serif" font-size="14.00">_layout</text>
<text text-anchor="start" x="313.562" y="-301.8" font-family="Times,serif" font-size="14.00">set_library_to_params</text>
<text text-anchor="start" x="313.562" y="-287.8" font-family="Times,serif" font-size="14.00">set_non_subdomained_login_id</text>
<text text-anchor="start" x="313.562" y="-273.8" font-family="Times,serif" font-size="14.00">set_staff</text>
<text text-anchor="start" x="313.562" y="-259.8" font-family="Times,serif" font-size="14.00">set_subdomained_login_id</text>
<text text-anchor="start" x="313.562" y="-245.8" font-family="Times,serif" font-size="14.00">staff_params</text>
</g>
<!-- Admin::UsersController -->
<g id="node5" class="node"><title>Admin::UsersController</title>
<path fill="none" stroke="black" d="M351.562,373C351.562,373 522.438,373 522.438,373 528.438,373 534.438,367 534.438,361 534.438,361 534.438,141 534.438,141 534.438,135 528.438,129 522.438,129 522.438,129 351.562,129 351.562,129 345.562,129 339.562,135 339.562,141 339.562,141 339.562,361 339.562,361 339.562,367 345.562,373 351.562,373"/>
<text text-anchor="middle" x="437" y="144.2" font-family="Times,serif" font-size="14.00">Admin::UsersController</text>
<polyline fill="none" stroke="black" points="339.562,151 534.438,151 "/>
<text text-anchor="start" x="347.562" y="166.2" font-family="Times,serif" font-size="14.00">create</text>
<text text-anchor="start" x="347.562" y="180.2" font-family="Times,serif" font-size="14.00">destroy</text>
<text text-anchor="start" x="347.562" y="194.2" font-family="Times,serif" font-size="14.00">edit</text>
<text text-anchor="start" x="347.562" y="208.2" font-family="Times,serif" font-size="14.00">index</text>
<text text-anchor="start" x="347.562" y="222.2" font-family="Times,serif" font-size="14.00">new</text>
<text text-anchor="start" x="347.562" y="236.2" font-family="Times,serif" font-size="14.00">show</text>
<text text-anchor="start" x="347.562" y="250.2" font-family="Times,serif" font-size="14.00">update</text>
<polyline fill="none" stroke="black" points="339.562,257 534.438,257 "/>
<polyline fill="none" stroke="black" points="339.562,281 534.438,281 "/>
<text text-anchor="start" x="347.562" y="296.2" font-family="Times,serif" font-size="14.00">_layout</text>
<text text-anchor="start" x="347.562" y="310.2" font-family="Times,serif" font-size="14.00">set_library_to_params</text>
<text text-anchor="start" x="347.562" y="324.2" font-family="Times,serif" font-size="14.00">set_non_subdomained_login_id</text>
<text text-anchor="start" x="347.562" y="338.2" font-family="Times,serif" font-size="14.00">set_subdomained_login_id</text>
<text text-anchor="start" x="347.562" y="352.2" font-family="Times,serif" font-size="14.00">set_user</text>
<text text-anchor="start" x="347.562" y="366.2" font-family="Times,serif" font-size="14.00">user_params</text>
</g>
<!-- AdminController -->
<g id="node6" class="node"><title>AdminController</title>
<path fill="none" stroke="black" d="M147.783,-409C147.783,-409 236.217,-409 236.217,-409 242.217,-409 248.217,-415 248.217,-421 248.217,-421 248.217,-501 248.217,-501 248.217,-507 242.217,-513 236.217,-513 236.217,-513 147.783,-513 147.783,-513 141.783,-513 135.783,-507 135.783,-501 135.783,-501 135.783,-421 135.783,-421 135.783,-415 141.783,-409 147.783,-409"/>
<text text-anchor="middle" x="192" y="-497.8" font-family="Times,serif" font-size="14.00">AdminController</text>
<polyline fill="none" stroke="black" points="135.783,-491 248.217,-491 "/>
<text text-anchor="start" x="143.783" y="-475.8" font-family="Times,serif" font-size="14.00">current_library</text>
<text text-anchor="start" x="143.783" y="-461.8" font-family="Times,serif" font-size="14.00">current_staff</text>
<polyline fill="none" stroke="black" points="135.783,-455 248.217,-455 "/>
<polyline fill="none" stroke="black" points="135.783,-431 248.217,-431 "/>
<text text-anchor="start" x="143.783" y="-415.8" font-family="Times,serif" font-size="14.00">_layout</text>
</g>
<!-- ApplicationController -->
<g id="node7" class="node"><title>ApplicationController</title>
<path fill="none" stroke="black" d="M-80.7584,72.715C-80.7584,72.715 34.8832,72.715 34.8832,72.715 40.8832,72.715 46.8832,66.715 46.8832,60.715 46.8832,60.715 46.8832,-19.285 46.8832,-19.285 46.8832,-25.285 40.8832,-31.285 34.8832,-31.285 34.8832,-31.285 -80.7584,-31.285 -80.7584,-31.285 -86.7584,-31.285 -92.7584,-25.285 -92.7584,-19.285 -92.7584,-19.285 -92.7584,60.715 -92.7584,60.715 -92.7584,66.715 -86.7584,72.715 -80.7584,72.715"/>
<text text-anchor="middle" x="-22.9376" y="-16.085" font-family="Times,serif" font-size="14.00">ApplicationController</text>
<polyline fill="none" stroke="black" points="-92.7584,-9.28503 46.8832,-9.28503 "/>
<text text-anchor="start" x="-84.7584" y="5.91497" font-family="Times,serif" font-size="14.00">current_library</text>
<text text-anchor="start" x="-84.7584" y="19.915" font-family="Times,serif" font-size="14.00">current_user</text>
<polyline fill="none" stroke="black" points="-92.7584,26.715 46.8832,26.715 "/>
<polyline fill="none" stroke="black" points="-92.7584,50.715 46.8832,50.715 "/>
<text text-anchor="start" x="-84.7584" y="65.915" font-family="Times,serif" font-size="14.00">_layout</text>
</g>
<!-- BooksController -->
<g id="node8" class="node"><title>BooksController</title>
<path fill="none" stroke="black" d="M149.044,-10.9564C149.044,-10.9564 234.375,-10.9564 234.375,-10.9564 240.375,-10.9564 246.375,-16.9564 246.375,-22.9564 246.375,-22.9564 246.375,-102.956 246.375,-102.956 246.375,-108.956 240.375,-114.956 234.375,-114.956 234.375,-114.956 149.044,-114.956 149.044,-114.956 143.044,-114.956 137.044,-108.956 137.044,-102.956 137.044,-102.956 137.044,-22.9564 137.044,-22.9564 137.044,-16.9564 143.044,-10.9564 149.044,-10.9564"/>
<text text-anchor="middle" x="191.709" y="-99.7564" font-family="Times,serif" font-size="14.00">BooksController</text>
<polyline fill="none" stroke="black" points="137.044,-92.9564 246.375,-92.9564 "/>
<text text-anchor="start" x="145.044" y="-77.7564" font-family="Times,serif" font-size="14.00">show</text>
<polyline fill="none" stroke="black" points="137.044,-70.9564 246.375,-70.9564 "/>
<polyline fill="none" stroke="black" points="137.044,-46.9564 246.375,-46.9564 "/>
<text text-anchor="start" x="145.044" y="-31.7564" font-family="Times,serif" font-size="14.00">_layout</text>
<text text-anchor="start" x="145.044" y="-17.7564" font-family="Times,serif" font-size="14.00">set_book</text>
</g>
<!-- ApplicationController&#45;&gt;BooksController -->
<g id="edge1" class="edge"><title>ApplicationController&#45;&gt;BooksController</title>
<path fill="none" stroke="black" d="M47.0488,-6.56637C76.1657,-17.9164 109.471,-30.8992 136.78,-41.5443"/>
</g>
<!-- LendPublicationsController -->
<g id="node9" class="node"><title>LendPublicationsController</title>
<path fill="none" stroke="black" d="M-297.113,322.171C-297.113,322.171 -149.582,322.171 -149.582,322.171 -143.582,322.171 -137.582,316.171 -137.582,310.171 -137.582,310.171 -137.582,160.171 -137.582,160.171 -137.582,154.171 -143.582,148.171 -149.582,148.171 -149.582,148.171 -297.113,148.171 -297.113,148.171 -303.113,148.171 -309.113,154.171 -309.113,160.171 -309.113,160.171 -309.113,310.171 -309.113,310.171 -309.113,316.171 -303.113,322.171 -297.113,322.171"/>
<text text-anchor="middle" x="-223.347" y="163.371" font-family="Times,serif" font-size="14.00">LendPublicationsController</text>
<polyline fill="none" stroke="black" points="-309.113,170.171 -137.582,170.171 "/>
<text text-anchor="start" x="-301.113" y="185.371" font-family="Times,serif" font-size="14.00">create</text>
<text text-anchor="start" x="-301.113" y="199.371" font-family="Times,serif" font-size="14.00">destroy</text>
<text text-anchor="start" x="-301.113" y="213.371" font-family="Times,serif" font-size="14.00">update</text>
<polyline fill="none" stroke="black" points="-309.113,220.171 -137.582,220.171 "/>
<polyline fill="none" stroke="black" points="-309.113,244.171 -137.582,244.171 "/>
<text text-anchor="start" x="-301.113" y="259.371" font-family="Times,serif" font-size="14.00">_layout</text>
<text text-anchor="start" x="-301.113" y="273.371" font-family="Times,serif" font-size="14.00">borrowing_params</text>
<text text-anchor="start" x="-301.113" y="287.371" font-family="Times,serif" font-size="14.00">lend_publication</text>
<text text-anchor="start" x="-301.113" y="301.371" font-family="Times,serif" font-size="14.00">set_borrowing</text>
<text text-anchor="start" x="-301.113" y="315.371" font-family="Times,serif" font-size="14.00">set_meta</text>
</g>
<!-- ApplicationController&#45;&gt;LendPublicationsController -->
<g id="edge2" class="edge"><title>ApplicationController&#45;&gt;LendPublicationsController</title>
<path fill="none" stroke="black" d="M-71.707,72.9025C-92.7941,95.4675 -118.051,122.494 -141.848,147.959"/>
</g>
<!-- LibrariesController -->
<g id="node10" class="node"><title>LibrariesController</title>
<path fill="none" stroke="black" d="M-295.103,-167.628C-295.103,-167.628 -195.026,-167.628 -195.026,-167.628 -189.026,-167.628 -183.026,-173.628 -183.026,-179.628 -183.026,-179.628 -183.026,-357.628 -183.026,-357.628 -183.026,-363.628 -189.026,-369.628 -195.026,-369.628 -195.026,-369.628 -295.103,-369.628 -295.103,-369.628 -301.103,-369.628 -307.103,-363.628 -307.103,-357.628 -307.103,-357.628 -307.103,-179.628 -307.103,-179.628 -307.103,-173.628 -301.103,-167.628 -295.103,-167.628"/>
<text text-anchor="middle" x="-245.065" y="-354.428" font-family="Times,serif" font-size="14.00">LibrariesController</text>
<polyline fill="none" stroke="black" points="-307.103,-347.628 -183.026,-347.628 "/>
<text text-anchor="start" x="-299.103" y="-332.428" font-family="Times,serif" font-size="14.00">create</text>
<text text-anchor="start" x="-299.103" y="-318.428" font-family="Times,serif" font-size="14.00">destroy</text>
<text text-anchor="start" x="-299.103" y="-304.428" font-family="Times,serif" font-size="14.00">edit</text>
<text text-anchor="start" x="-299.103" y="-290.428" font-family="Times,serif" font-size="14.00">index</text>
<text text-anchor="start" x="-299.103" y="-276.428" font-family="Times,serif" font-size="14.00">new</text>
<text text-anchor="start" x="-299.103" y="-262.428" font-family="Times,serif" font-size="14.00">show</text>
<text text-anchor="start" x="-299.103" y="-248.428" font-family="Times,serif" font-size="14.00">update</text>
<polyline fill="none" stroke="black" points="-307.103,-241.628 -183.026,-241.628 "/>
<polyline fill="none" stroke="black" points="-307.103,-217.628 -183.026,-217.628 "/>
<text text-anchor="start" x="-299.103" y="-202.428" font-family="Times,serif" font-size="14.00">_layout</text>
<text text-anchor="start" x="-299.103" y="-188.428" font-family="Times,serif" font-size="14.00">library_params</text>
<text text-anchor="start" x="-299.103" y="-174.428" font-family="Times,serif" font-size="14.00">set_library</text>
</g>
<!-- ApplicationController&#45;&gt;LibrariesController -->
<g id="edge3" class="edge"><title>ApplicationController&#45;&gt;LibrariesController</title>
<path fill="none" stroke="black" d="M-62.906,-31.348C-96.3183,-74.8709 -144.54,-137.685 -182.977,-187.752"/>
</g>
<!-- MagazinesController -->
<g id="node11" class="node"><title>MagazinesController</title>
<path fill="none" stroke="black" d="M139.581,-234.74C139.581,-234.74 249.768,-234.74 249.768,-234.74 255.768,-234.74 261.768,-240.74 261.768,-246.74 261.768,-246.74 261.768,-326.74 261.768,-326.74 261.768,-332.74 255.768,-338.74 249.768,-338.74 249.768,-338.74 139.581,-338.74 139.581,-338.74 133.581,-338.74 127.581,-332.74 127.581,-326.74 127.581,-326.74 127.581,-246.74 127.581,-246.74 127.581,-240.74 133.581,-234.74 139.581,-234.74"/>
<text text-anchor="middle" x="194.674" y="-323.54" font-family="Times,serif" font-size="14.00">MagazinesController</text>
<polyline fill="none" stroke="black" points="127.581,-316.74 261.768,-316.74 "/>
<text text-anchor="start" x="135.581" y="-301.54" font-family="Times,serif" font-size="14.00">show</text>
<polyline fill="none" stroke="black" points="127.581,-294.74 261.768,-294.74 "/>
<polyline fill="none" stroke="black" points="127.581,-270.74 261.768,-270.74 "/>
<text text-anchor="start" x="135.581" y="-255.54" font-family="Times,serif" font-size="14.00">_layout</text>
<text text-anchor="start" x="135.581" y="-241.54" font-family="Times,serif" font-size="14.00">set_magazine</text>
</g>
<!-- ApplicationController&#45;&gt;MagazinesController -->
<g id="edge4" class="edge"><title>ApplicationController&#45;&gt;MagazinesController</title>
<path fill="none" stroke="black" d="M13.9773,-31.4405C54.0541,-88.0633 117.684,-177.963 157.76,-234.586"/>
</g>
<!-- PublicationsController -->
<g id="node12" class="node"><title>PublicationsController</title>
<path fill="none" stroke="black" d="M-118.581,-176.023C-118.581,-176.023 59.2608,-176.023 59.2608,-176.023 65.2608,-176.023 71.2608,-182.023 71.2608,-188.023 71.2608,-188.023 71.2608,-310.023 71.2608,-310.023 71.2608,-316.023 65.2608,-322.023 59.2608,-322.023 59.2608,-322.023 -118.581,-322.023 -118.581,-322.023 -124.581,-322.023 -130.581,-316.023 -130.581,-310.023 -130.581,-310.023 -130.581,-188.023 -130.581,-188.023 -130.581,-182.023 -124.581,-176.023 -118.581,-176.023"/>
<text text-anchor="middle" x="-29.6601" y="-306.823" font-family="Times,serif" font-size="14.00">PublicationsController</text>
<polyline fill="none" stroke="black" points="-130.581,-300.023 71.2608,-300.023 "/>
<text text-anchor="start" x="-122.581" y="-284.823" font-family="Times,serif" font-size="14.00">index</text>
<text text-anchor="start" x="-122.581" y="-270.823" font-family="Times,serif" font-size="14.00">show</text>
<polyline fill="none" stroke="black" points="-130.581,-264.023 71.2608,-264.023 "/>
<polyline fill="none" stroke="black" points="-130.581,-240.023 71.2608,-240.023 "/>
<text text-anchor="start" x="-122.581" y="-224.823" font-family="Times,serif" font-size="14.00">_layout</text>
<text text-anchor="start" x="-122.581" y="-210.823" font-family="Times,serif" font-size="14.00">create_the_publication_list</text>
<text text-anchor="start" x="-122.581" y="-196.823" font-family="Times,serif" font-size="14.00">obtain_the_detail_of_publication</text>
<text text-anchor="start" x="-122.581" y="-182.823" font-family="Times,serif" font-size="14.00">search_publication</text>
</g>
<!-- ApplicationController&#45;&gt;PublicationsController -->
<g id="edge5" class="edge"><title>ApplicationController&#45;&gt;PublicationsController</title>
<path fill="none" stroke="black" d="M-24.2337,-31.2932C-25.2582,-72.3981 -26.7004,-130.269 -27.8406,-176.017"/>
</g>
<!-- ReservePublicationsController -->
<g id="node13" class="node"><title>ReservePublicationsController</title>
<path fill="none" stroke="black" d="M-328.019,64.7498C-328.019,64.7498 -164.164,64.7498 -164.164,64.7498 -158.164,64.7498 -152.164,58.7498 -152.164,52.7498 -152.164,52.7498 -152.164,-83.2502 -152.164,-83.2502 -152.164,-89.2502 -158.164,-95.2502 -164.164,-95.2502 -164.164,-95.2502 -328.019,-95.2502 -328.019,-95.2502 -334.019,-95.2502 -340.019,-89.2502 -340.019,-83.2502 -340.019,-83.2502 -340.019,52.7498 -340.019,52.7498 -340.019,58.7498 -334.019,64.7498 -328.019,64.7498"/>
<text text-anchor="middle" x="-246.091" y="-80.0502" font-family="Times,serif" font-size="14.00">ReservePublicationsController</text>
<polyline fill="none" stroke="black" points="-340.019,-73.2502 -152.164,-73.2502 "/>
<text text-anchor="start" x="-332.019" y="-58.0502" font-family="Times,serif" font-size="14.00">create</text>
<text text-anchor="start" x="-332.019" y="-44.0502" font-family="Times,serif" font-size="14.00">destroy</text>
<polyline fill="none" stroke="black" points="-340.019,-37.2502 -152.164,-37.2502 "/>
<polyline fill="none" stroke="black" points="-340.019,-13.2502 -152.164,-13.2502 "/>
<text text-anchor="start" x="-332.019" y="1.94981" font-family="Times,serif" font-size="14.00">_layout</text>
<text text-anchor="start" x="-332.019" y="15.9498" font-family="Times,serif" font-size="14.00">reservation_params</text>
<text text-anchor="start" x="-332.019" y="29.9498" font-family="Times,serif" font-size="14.00">reserve_publication</text>
<text text-anchor="start" x="-332.019" y="43.9498" font-family="Times,serif" font-size="14.00">set_meta</text>
<text text-anchor="start" x="-332.019" y="57.9498" font-family="Times,serif" font-size="14.00">set_reservation</text>
</g>
<!-- ApplicationController&#45;&gt;ReservePublicationsController -->
<g id="edge6" class="edge"><title>ApplicationController&#45;&gt;ReservePublicationsController</title>
<path fill="none" stroke="black" d="M-92.9326,9.43405C-111.594,6.42639 -132.067,3.12686 -151.8,-0.0535196"/>
</g>
<!-- SessionsController -->
<g id="node14" class="node"><title>SessionsController</title>
<path fill="none" stroke="black" d="M173.411,260.573C173.411,260.573 280.522,260.573 280.522,260.573 286.522,260.573 292.522,254.573 292.522,248.573 292.522,248.573 292.522,126.573 292.522,126.573 292.522,120.573 286.522,114.573 280.522,114.573 280.522,114.573 173.411,114.573 173.411,114.573 167.411,114.573 161.411,120.573 161.411,126.573 161.411,126.573 161.411,248.573 161.411,248.573 161.411,254.573 167.411,260.573 173.411,260.573"/>
<text text-anchor="middle" x="226.966" y="129.773" font-family="Times,serif" font-size="14.00">SessionsController</text>
<polyline fill="none" stroke="black" points="161.411,136.573 292.522,136.573 "/>
<text text-anchor="start" x="169.411" y="151.773" font-family="Times,serif" font-size="14.00">create</text>
<text text-anchor="start" x="169.411" y="165.773" font-family="Times,serif" font-size="14.00">destroy</text>
<text text-anchor="start" x="169.411" y="179.773" font-family="Times,serif" font-size="14.00">go_to_user</text>
<text text-anchor="start" x="169.411" y="193.773" font-family="Times,serif" font-size="14.00">new</text>
<text text-anchor="start" x="169.411" y="207.773" font-family="Times,serif" font-size="14.00">subdomain_login_id</text>
<polyline fill="none" stroke="black" points="161.411,214.573 292.522,214.573 "/>
<polyline fill="none" stroke="black" points="161.411,238.573 292.522,238.573 "/>
<text text-anchor="start" x="169.411" y="253.773" font-family="Times,serif" font-size="14.00">_layout</text>
</g>
<!-- ApplicationController&#45;&gt;SessionsController -->
<g id="edge7" class="edge"><title>ApplicationController&#45;&gt;SessionsController</title>
<path fill="none" stroke="black" d="M47.0069,67.4162C82.817,91.3262 126.158,120.265 161.333,143.75"/>
</g>
<!-- UsersController -->
<g id="node15" class="node"><title>UsersController</title>
<path fill="none" stroke="black" d="M-47.5773,373.807C-47.5773,373.807 123.299,373.807 123.299,373.807 129.299,373.807 135.299,367.807 135.299,361.807 135.299,361.807 135.299,155.807 135.299,155.807 135.299,149.807 129.299,143.807 123.299,143.807 123.299,143.807 -47.5773,143.807 -47.5773,143.807 -53.5773,143.807 -59.5773,149.807 -59.5773,155.807 -59.5773,155.807 -59.5773,361.807 -59.5773,361.807 -59.5773,367.807 -53.5773,373.807 -47.5773,373.807"/>
<text text-anchor="middle" x="37.8607" y="159.007" font-family="Times,serif" font-size="14.00">UsersController</text>
<polyline fill="none" stroke="black" points="-59.5773,165.807 135.299,165.807 "/>
<text text-anchor="start" x="-51.5773" y="181.007" font-family="Times,serif" font-size="14.00">create</text>
<text text-anchor="start" x="-51.5773" y="195.007" font-family="Times,serif" font-size="14.00">destroy</text>
<text text-anchor="start" x="-51.5773" y="209.007" font-family="Times,serif" font-size="14.00">edit</text>
<text text-anchor="start" x="-51.5773" y="223.007" font-family="Times,serif" font-size="14.00">new</text>
<text text-anchor="start" x="-51.5773" y="237.007" font-family="Times,serif" font-size="14.00">show</text>
<text text-anchor="start" x="-51.5773" y="251.007" font-family="Times,serif" font-size="14.00">update</text>
<polyline fill="none" stroke="black" points="-59.5773,257.807 135.299,257.807 "/>
<polyline fill="none" stroke="black" points="-59.5773,281.807 135.299,281.807 "/>
<text text-anchor="start" x="-51.5773" y="297.007" font-family="Times,serif" font-size="14.00">_layout</text>
<text text-anchor="start" x="-51.5773" y="311.007" font-family="Times,serif" font-size="14.00">set_library_to_params</text>
<text text-anchor="start" x="-51.5773" y="325.007" font-family="Times,serif" font-size="14.00">set_non_subdomained_login_id</text>
<text text-anchor="start" x="-51.5773" y="339.007" font-family="Times,serif" font-size="14.00">set_subdomained_login_id</text>
<text text-anchor="start" x="-51.5773" y="353.007" font-family="Times,serif" font-size="14.00">set_user</text>
<text text-anchor="start" x="-51.5773" y="367.007" font-family="Times,serif" font-size="14.00">user_params</text>
</g>
<!-- ApplicationController&#45;&gt;UsersController -->
<g id="edge8" class="edge"><title>ApplicationController&#45;&gt;UsersController</title>
<path fill="none" stroke="black" d="M-9.59514,72.9652C-4.24702,93.9089 2.14249,118.931 8.47342,143.723"/>
</g>
</g>
</svg>
