<?xml version="1.0" encoding="UTF-8" standalone="no"?>
<!DOCTYPE svg PUBLIC "-//W3C//DTD SVG 1.1//EN"
 "http://www.w3.org/Graphics/SVG/1.1/DTD/svg11.dtd">
<!-- Generated by graphviz version 2.38.0 (20140413.2041)
 -->
<!-- Title: controllers_diagram Pages: 1 -->
<svg width="930pt" height="967pt"
 viewBox="0.00 0.00 930.18 967.03" xmlns="http://www.w3.org/2000/svg" xmlns:xlink="http://www.w3.org/1999/xlink">
<g id="graph0" class="graph" transform="scale(1 1) rotate(0) translate(344.497 589.5)">
<title>controllers_diagram</title>
<polygon fill="white" stroke="none" points="-344.497,377.527 -344.497,-589.5 585.688,-589.5 585.688,377.527 -344.497,377.527"/>
<!-- _diagram_info -->
<g id="node1" class="node"><title>_diagram_info</title>
<text text-anchor="start" x="382.312" y="-195.1" font-family="Times,serif" font-size="13.00">Controllers diagram</text>
<text text-anchor="start" x="382.312" y="-182.1" font-family="Times,serif" font-size="13.00">Date: Jul 10 2014 &#45; 19:25</text>
<text text-anchor="start" x="382.312" y="-169.1" font-family="Times,serif" font-size="13.00">Migration version: 20140710050706</text>
<text text-anchor="start" x="382.312" y="-156.1" font-family="Times,serif" font-size="13.00">Generated by RailRoady 1.1.1</text>
<text text-anchor="start" x="382.312" y="-143.1" font-family="Times,serif" font-size="13.00">http://railroady.prestonlee.com</text>
</g>
<!-- Admin::PublicationsController -->
<g id="node2" class="node"><title>Admin::PublicationsController</title>
<path fill="none" stroke="black" d="M318.283,-307C318.283,-307 483.717,-307 483.717,-307 489.717,-307 495.717,-313 495.717,-319 495.717,-319 495.717,-567 495.717,-567 495.717,-573 489.717,-579 483.717,-579 483.717,-579 318.283,-579 318.283,-579 312.283,-579 306.283,-573 306.283,-567 306.283,-567 306.283,-319 306.283,-319 306.283,-313 312.283,-307 318.283,-307"/>
<text text-anchor="middle" x="401" y="-563.8" font-family="Times,serif" font-size="14.00">Admin::PublicationsController</text>
<polyline fill="none" stroke="black" points="306.283,-557 495.717,-557 "/>
<text text-anchor="start" x="314.283" y="-541.8" font-family="Times,serif" font-size="14.00">add_publication</text>
<text text-anchor="start" x="314.283" y="-527.8" font-family="Times,serif" font-size="14.00">create</text>
<text text-anchor="start" x="314.283" y="-513.8" font-family="Times,serif" font-size="14.00">create_as_the_adding_date</text>
<text text-anchor="start" x="314.283" y="-499.8" font-family="Times,serif" font-size="14.00">destroy</text>
<text text-anchor="start" x="314.283" y="-485.8" font-family="Times,serif" font-size="14.00">edit</text>
<text text-anchor="start" x="314.283" y="-471.8" font-family="Times,serif" font-size="14.00">index</text>
<text text-anchor="start" x="314.283" y="-457.8" font-family="Times,serif" font-size="14.00">new</text>
<text text-anchor="start" x="314.283" y="-443.8" font-family="Times,serif" font-size="14.00">obtain_the_publication_list</text>
<text text-anchor="start" x="314.283" y="-429.8" font-family="Times,serif" font-size="14.00">show</text>
<text text-anchor="start" x="314.283" y="-415.8" font-family="Times,serif" font-size="14.00">update</text>
<text text-anchor="start" x="314.283" y="-401.8" font-family="Times,serif" font-size="14.00">update_publication_list</text>
<polyline fill="none" stroke="black" points="306.283,-395 495.717,-395 "/>
<polyline fill="none" stroke="black" points="306.283,-371 495.717,-371 "/>
<text text-anchor="start" x="314.283" y="-355.8" font-family="Times,serif" font-size="14.00">_layout</text>
<text text-anchor="start" x="314.283" y="-341.8" font-family="Times,serif" font-size="14.00">publication_params</text>
<text text-anchor="start" x="314.283" y="-327.8" font-family="Times,serif" font-size="14.00">set_library_to_params</text>
<text text-anchor="start" x="314.283" y="-313.8" font-family="Times,serif" font-size="14.00">set_publication</text>
</g>
<!-- Admin::SessionsController -->
<g id="node3" class="node"><title>Admin::SessionsController</title>
<path fill="none" stroke="black" d="M385.776,67C385.776,67 530.224,67 530.224,67 536.224,67 542.224,61 542.224,55 542.224,55 542.224,-67 542.224,-67 542.224,-73 536.224,-79 530.224,-79 530.224,-79 385.776,-79 385.776,-79 379.776,-79 373.776,-73 373.776,-67 373.776,-67 373.776,55 373.776,55 373.776,61 379.776,67 385.776,67"/>
<text text-anchor="middle" x="458" y="-63.8" font-family="Times,serif" font-size="14.00">Admin::SessionsController</text>
<polyline fill="none" stroke="black" points="373.776,-57 542.224,-57 "/>
<text text-anchor="start" x="381.776" y="-41.8" font-family="Times,serif" font-size="14.00">create</text>
<text text-anchor="start" x="381.776" y="-27.8" font-family="Times,serif" font-size="14.00">destroy</text>
<text text-anchor="start" x="381.776" y="-13.8" font-family="Times,serif" font-size="14.00">go_to_staff</text>
<text text-anchor="start" x="381.776" y="0.2" font-family="Times,serif" font-size="14.00">new</text>
<text text-anchor="start" x="381.776" y="14.2" font-family="Times,serif" font-size="14.00">subdomain_login_id</text>
<polyline fill="none" stroke="black" points="373.776,21 542.224,21 "/>
<polyline fill="none" stroke="black" points="373.776,45 542.224,45 "/>
<text text-anchor="start" x="381.776" y="60.2" font-family="Times,serif" font-size="14.00">_layout</text>
</g>
<!-- Admin::StaffsController -->
<g id="node4" class="node"><title>Admin::StaffsController</title>
<path fill="none" stroke="black" d="M79.562,-341C79.562,-341 250.438,-341 250.438,-341 256.438,-341 262.438,-347 262.438,-353 262.438,-353 262.438,-573 262.438,-573 262.438,-579 256.438,-585 250.438,-585 250.438,-585 79.562,-585 79.562,-585 73.562,-585 67.562,-579 67.562,-573 67.562,-573 67.562,-353 67.562,-353 67.562,-347 73.562,-341 79.562,-341"/>
<text text-anchor="middle" x="165" y="-569.8" font-family="Times,serif" font-size="14.00">Admin::StaffsController</text>
<polyline fill="none" stroke="black" points="67.562,-563 262.438,-563 "/>
<text text-anchor="start" x="75.562" y="-547.8" font-family="Times,serif" font-size="14.00">create</text>
<text text-anchor="start" x="75.562" y="-533.8" font-family="Times,serif" font-size="14.00">destroy</text>
<text text-anchor="start" x="75.562" y="-519.8" font-family="Times,serif" font-size="14.00">edit</text>
<text text-anchor="start" x="75.562" y="-505.8" font-family="Times,serif" font-size="14.00">index</text>
<text text-anchor="start" x="75.562" y="-491.8" font-family="Times,serif" font-size="14.00">new</text>
<text text-anchor="start" x="75.562" y="-477.8" font-family="Times,serif" font-size="14.00">show</text>
<text text-anchor="start" x="75.562" y="-463.8" font-family="Times,serif" font-size="14.00">update</text>
<polyline fill="none" stroke="black" points="67.562,-457 262.438,-457 "/>
<polyline fill="none" stroke="black" points="67.562,-433 262.438,-433 "/>
<text text-anchor="start" x="75.562" y="-417.8" font-family="Times,serif" font-size="14.00">_layout</text>
<text text-anchor="start" x="75.562" y="-403.8" font-family="Times,serif" font-size="14.00">set_library_to_params</text>
<text text-anchor="start" x="75.562" y="-389.8" font-family="Times,serif" font-size="14.00">set_non_subdomained_login_id</text>
<text text-anchor="start" x="75.562" y="-375.8" font-family="Times,serif" font-size="14.00">set_staff</text>
<text text-anchor="start" x="75.562" y="-361.8" font-family="Times,serif" font-size="14.00">set_subdomained_login_id</text>
<text text-anchor="start" x="75.562" y="-347.8" font-family="Times,serif" font-size="14.00">staff_params</text>
</g>
<!-- Admin::UsersController -->
<g id="node5" class="node"><title>Admin::UsersController</title>
<path fill="none" stroke="black" d="M385.562,373C385.562,373 556.438,373 556.438,373 562.438,373 568.438,367 568.438,361 568.438,361 568.438,141 568.438,141 568.438,135 562.438,129 556.438,129 556.438,129 385.562,129 385.562,129 379.562,129 373.562,135 373.562,141 373.562,141 373.562,361 373.562,361 373.562,367 379.562,373 385.562,373"/>
<text text-anchor="middle" x="471" y="144.2" font-family="Times,serif" font-size="14.00">Admin::UsersController</text>
<polyline fill="none" stroke="black" points="373.562,151 568.438,151 "/>
<text text-anchor="start" x="381.562" y="166.2" font-family="Times,serif" font-size="14.00">create</text>
<text text-anchor="start" x="381.562" y="180.2" font-family="Times,serif" font-size="14.00">destroy</text>
<text text-anchor="start" x="381.562" y="194.2" font-family="Times,serif" font-size="14.00">edit</text>
<text text-anchor="start" x="381.562" y="208.2" font-family="Times,serif" font-size="14.00">index</text>
<text text-anchor="start" x="381.562" y="222.2" font-family="Times,serif" font-size="14.00">new</text>
<text text-anchor="start" x="381.562" y="236.2" font-family="Times,serif" font-size="14.00">show</text>
<text text-anchor="start" x="381.562" y="250.2" font-family="Times,serif" font-size="14.00">update</text>
<polyline fill="none" stroke="black" points="373.562,257 568.438,257 "/>
<polyline fill="none" stroke="black" points="373.562,281 568.438,281 "/>
<text text-anchor="start" x="381.562" y="296.2" font-family="Times,serif" font-size="14.00">_layout</text>
<text text-anchor="start" x="381.562" y="310.2" font-family="Times,serif" font-size="14.00">set_library_to_params</text>
<text text-anchor="start" x="381.562" y="324.2" font-family="Times,serif" font-size="14.00">set_non_subdomained_login_id</text>
<text text-anchor="start" x="381.562" y="338.2" font-family="Times,serif" font-size="14.00">set_subdomained_login_id</text>
<text text-anchor="start" x="381.562" y="352.2" font-family="Times,serif" font-size="14.00">set_user</text>
<text text-anchor="start" x="381.562" y="366.2" font-family="Times,serif" font-size="14.00">user_params</text>
</g>
<!-- AdminController -->
<g id="node6" class="node"><title>AdminController</title>
<path fill="none" stroke="black" d="M-90.2173,-375C-90.2173,-375 -1.78271,-375 -1.78271,-375 4.21729,-375 10.2173,-381 10.2173,-387 10.2173,-387 10.2173,-467 10.2173,-467 10.2173,-473 4.21729,-479 -1.78271,-479 -1.78271,-479 -90.2173,-479 -90.2173,-479 -96.2173,-479 -102.217,-473 -102.217,-467 -102.217,-467 -102.217,-387 -102.217,-387 -102.217,-381 -96.2173,-375 -90.2173,-375"/>
<text text-anchor="middle" x="-46" y="-463.8" font-family="Times,serif" font-size="14.00">AdminController</text>
<polyline fill="none" stroke="black" points="-102.217,-457 10.2173,-457 "/>
<text text-anchor="start" x="-94.2173" y="-441.8" font-family="Times,serif" font-size="14.00">current_library</text>
<text text-anchor="start" x="-94.2173" y="-427.8" font-family="Times,serif" font-size="14.00">current_staff</text>
<polyline fill="none" stroke="black" points="-102.217,-421 10.2173,-421 "/>
<polyline fill="none" stroke="black" points="-102.217,-397 10.2173,-397 "/>
<text text-anchor="start" x="-94.2173" y="-381.8" font-family="Times,serif" font-size="14.00">_layout</text>
</g>
<!-- ApplicationController -->
<g id="node7" class="node"><title>ApplicationController</title>
<path fill="none" stroke="black" d="M-68.849,53.6669C-68.849,53.6669 46.7926,53.6669 46.7926,53.6669 52.7926,53.6669 58.7926,47.6669 58.7926,41.6669 58.7926,41.6669 58.7926,-38.3331 58.7926,-38.3331 58.7926,-44.3331 52.7926,-50.3331 46.7926,-50.3331 46.7926,-50.3331 -68.849,-50.3331 -68.849,-50.3331 -74.849,-50.3331 -80.849,-44.3331 -80.849,-38.3331 -80.849,-38.3331 -80.849,41.6669 -80.849,41.6669 -80.849,47.6669 -74.849,53.6669 -68.849,53.6669"/>
<text text-anchor="middle" x="-11.0282" y="-35.1331" font-family="Times,serif" font-size="14.00">ApplicationController</text>
<polyline fill="none" stroke="black" points="-80.849,-28.3331 58.7926,-28.3331 "/>
<text text-anchor="start" x="-72.849" y="-13.1331" font-family="Times,serif" font-size="14.00">current_library</text>
<text text-anchor="start" x="-72.849" y="0.866918" font-family="Times,serif" font-size="14.00">current_user</text>
<polyline fill="none" stroke="black" points="-80.849,7.66692 58.7926,7.66692 "/>
<polyline fill="none" stroke="black" points="-80.849,31.6669 58.7926,31.6669 "/>
<text text-anchor="start" x="-72.849" y="46.8669" font-family="Times,serif" font-size="14.00">_layout</text>
</g>
<!-- BooksController -->
<g id="node8" class="node"><title>BooksController</title>
<path fill="none" stroke="black" d="M202.852,-152.286C202.852,-152.286 288.183,-152.286 288.183,-152.286 294.183,-152.286 300.183,-158.286 300.183,-164.286 300.183,-164.286 300.183,-244.286 300.183,-244.286 300.183,-250.286 294.183,-256.286 288.183,-256.286 288.183,-256.286 202.852,-256.286 202.852,-256.286 196.852,-256.286 190.852,-250.286 190.852,-244.286 190.852,-244.286 190.852,-164.286 190.852,-164.286 190.852,-158.286 196.852,-152.286 202.852,-152.286"/>
<text text-anchor="middle" x="245.517" y="-241.086" font-family="Times,serif" font-size="14.00">BooksController</text>
<polyline fill="none" stroke="black" points="190.852,-234.286 300.183,-234.286 "/>
<text text-anchor="start" x="198.852" y="-219.086" font-family="Times,serif" font-size="14.00">show</text>
<polyline fill="none" stroke="black" points="190.852,-212.286 300.183,-212.286 "/>
<polyline fill="none" stroke="black" points="190.852,-188.286 300.183,-188.286 "/>
<text text-anchor="start" x="198.852" y="-173.086" font-family="Times,serif" font-size="14.00">_layout</text>
<text text-anchor="start" x="198.852" y="-159.086" font-family="Times,serif" font-size="14.00">set_book</text>
</g>
<!-- ApplicationController&#45;&gt;BooksController -->
<g id="edge1" class="edge"><title>ApplicationController&#45;&gt;BooksController</title>
<path fill="none" stroke="black" d="M54.0407,-50.5701C96.1993,-84.4148 150.501,-128.008 190.504,-160.122"/>
</g>
<!-- LendPublicationsController -->
<g id="node9" class="node"><title>LendPublicationsController</title>
<path fill="none" stroke="black" d="M-98.7723,327.674C-98.7723,327.674 48.7589,327.674 48.7589,327.674 54.7589,327.674 60.7589,321.674 60.7589,315.674 60.7589,315.674 60.7589,165.674 60.7589,165.674 60.7589,159.674 54.7589,153.674 48.7589,153.674 48.7589,153.674 -98.7723,153.674 -98.7723,153.674 -104.772,153.674 -110.772,159.674 -110.772,165.674 -110.772,165.674 -110.772,315.674 -110.772,315.674 -110.772,321.674 -104.772,327.674 -98.7723,327.674"/>
<text text-anchor="middle" x="-25.0067" y="168.874" font-family="Times,serif" font-size="14.00">LendPublicationsController</text>
<polyline fill="none" stroke="black" points="-110.772,175.674 60.7589,175.674 "/>
<text text-anchor="start" x="-102.772" y="190.874" font-family="Times,serif" font-size="14.00">create</text>
<text text-anchor="start" x="-102.772" y="204.874" font-family="Times,serif" font-size="14.00">destroy</text>
<text text-anchor="start" x="-102.772" y="218.874" font-family="Times,serif" font-size="14.00">update</text>
<polyline fill="none" stroke="black" points="-110.772,225.674 60.7589,225.674 "/>
<polyline fill="none" stroke="black" points="-110.772,249.674 60.7589,249.674 "/>
<text text-anchor="start" x="-102.772" y="264.874" font-family="Times,serif" font-size="14.00">_layout</text>
<text text-anchor="start" x="-102.772" y="278.874" font-family="Times,serif" font-size="14.00">borrowing_params</text>
<text text-anchor="start" x="-102.772" y="292.874" font-family="Times,serif" font-size="14.00">lend_publication</text>
<text text-anchor="start" x="-102.772" y="306.874" font-family="Times,serif" font-size="14.00">set_borrowing</text>
<text text-anchor="start" x="-102.772" y="320.874" font-family="Times,serif" font-size="14.00">set_meta</text>
</g>
<!-- ApplicationController&#45;&gt;LendPublicationsController -->
<g id="edge2" class="edge"><title>ApplicationController&#45;&gt;LendPublicationsController</title>
<path fill="none" stroke="black" d="M-14.0786,53.8226C-15.7816,82.9416 -17.9479,119.982 -19.9019,153.391"/>
</g>
<!-- LibrariesController -->
<g id="node10" class="node"><title>LibrariesController</title>
<path fill="none" stroke="black" d="M-325.226,-122.922C-325.226,-122.922 -225.15,-122.922 -225.15,-122.922 -219.15,-122.922 -213.15,-128.922 -213.15,-134.922 -213.15,-134.922 -213.15,-312.922 -213.15,-312.922 -213.15,-318.922 -219.15,-324.922 -225.15,-324.922 -225.15,-324.922 -325.226,-324.922 -325.226,-324.922 -331.226,-324.922 -337.226,-318.922 -337.226,-312.922 -337.226,-312.922 -337.226,-134.922 -337.226,-134.922 -337.226,-128.922 -331.226,-122.922 -325.226,-122.922"/>
<text text-anchor="middle" x="-275.188" y="-309.722" font-family="Times,serif" font-size="14.00">LibrariesController</text>
<polyline fill="none" stroke="black" points="-337.226,-302.922 -213.15,-302.922 "/>
<text text-anchor="start" x="-329.226" y="-287.722" font-family="Times,serif" font-size="14.00">create</text>
<text text-anchor="start" x="-329.226" y="-273.722" font-family="Times,serif" font-size="14.00">destroy</text>
<text text-anchor="start" x="-329.226" y="-259.722" font-family="Times,serif" font-size="14.00">edit</text>
<text text-anchor="start" x="-329.226" y="-245.722" font-family="Times,serif" font-size="14.00">index</text>
<text text-anchor="start" x="-329.226" y="-231.722" font-family="Times,serif" font-size="14.00">new</text>
<text text-anchor="start" x="-329.226" y="-217.722" font-family="Times,serif" font-size="14.00">show</text>
<text text-anchor="start" x="-329.226" y="-203.722" font-family="Times,serif" font-size="14.00">update</text>
<polyline fill="none" stroke="black" points="-337.226,-196.922 -213.15,-196.922 "/>
<polyline fill="none" stroke="black" points="-337.226,-172.922 -213.15,-172.922 "/>
<text text-anchor="start" x="-329.226" y="-157.722" font-family="Times,serif" font-size="14.00">_layout</text>
<text text-anchor="start" x="-329.226" y="-143.722" font-family="Times,serif" font-size="14.00">library_params</text>
<text text-anchor="start" x="-329.226" y="-129.722" font-family="Times,serif" font-size="14.00">set_library</text>
</g>
<!-- ApplicationController&#45;&gt;LibrariesController -->
<g id="edge3" class="edge"><title>ApplicationController&#45;&gt;LibrariesController</title>
<path fill="none" stroke="black" d="M-81.2175,-38.0122C-117.843,-60.4925 -162.18,-90.6161 -197.169,-123.293 -202.581,-128.348 -207.913,-133.803 -213.092,-139.467"/>
</g>
<!-- MagazinesController -->
<g id="node11" class="node"><title>MagazinesController</title>
<path fill="none" stroke="black" d="M26.9139,-185.246C26.9139,-185.246 137.1,-185.246 137.1,-185.246 143.1,-185.246 149.1,-191.246 149.1,-197.246 149.1,-197.246 149.1,-277.246 149.1,-277.246 149.1,-283.246 143.1,-289.246 137.1,-289.246 137.1,-289.246 26.9139,-289.246 26.9139,-289.246 20.9139,-289.246 14.9139,-283.246 14.9139,-277.246 14.9139,-277.246 14.9139,-197.246 14.9139,-197.246 14.9139,-191.246 20.9139,-185.246 26.9139,-185.246"/>
<text text-anchor="middle" x="82.0072" y="-274.046" font-family="Times,serif" font-size="14.00">MagazinesController</text>
<polyline fill="none" stroke="black" points="14.9139,-267.246 149.1,-267.246 "/>
<text text-anchor="start" x="22.9139" y="-252.046" font-family="Times,serif" font-size="14.00">show</text>
<polyline fill="none" stroke="black" points="14.9139,-245.246 149.1,-245.246 "/>
<polyline fill="none" stroke="black" points="14.9139,-221.246 149.1,-221.246 "/>
<text text-anchor="start" x="22.9139" y="-206.046" font-family="Times,serif" font-size="14.00">_layout</text>
<text text-anchor="start" x="22.9139" y="-192.046" font-family="Times,serif" font-size="14.00">set_magazine</text>
</g>
<!-- ApplicationController&#45;&gt;MagazinesController -->
<g id="edge4" class="edge"><title>ApplicationController&#45;&gt;MagazinesController</title>
<path fill="none" stroke="black" d="M9.27386,-50.4682C24.8325,-90.4225 46.2006,-145.295 61.7484,-185.222"/>
</g>
<!-- PublicationsController -->
<g id="node12" class="node"><title>PublicationsController</title>
<path fill="none" stroke="black" d="M-181.969,-126.493C-181.969,-126.493 -4.12714,-126.493 -4.12714,-126.493 1.87286,-126.493 7.87286,-132.493 7.87286,-138.493 7.87286,-138.493 7.87286,-302.493 7.87286,-302.493 7.87286,-308.493 1.87286,-314.493 -4.12714,-314.493 -4.12714,-314.493 -181.969,-314.493 -181.969,-314.493 -187.969,-314.493 -193.969,-308.493 -193.969,-302.493 -193.969,-302.493 -193.969,-138.493 -193.969,-138.493 -193.969,-132.493 -187.969,-126.493 -181.969,-126.493"/>
<text text-anchor="middle" x="-93.048" y="-299.293" font-family="Times,serif" font-size="14.00">PublicationsController</text>
<polyline fill="none" stroke="black" points="-193.969,-292.493 7.87286,-292.493 "/>
<text text-anchor="start" x="-185.969" y="-277.293" font-family="Times,serif" font-size="14.00">check_the_status_of_publication</text>
<text text-anchor="start" x="-185.969" y="-263.293" font-family="Times,serif" font-size="14.00">create_as_processing_date</text>
<text text-anchor="start" x="-185.969" y="-249.293" font-family="Times,serif" font-size="14.00">create_the_publication_list</text>
<text text-anchor="start" x="-185.969" y="-235.293" font-family="Times,serif" font-size="14.00">index</text>
<text text-anchor="start" x="-185.969" y="-221.293" font-family="Times,serif" font-size="14.00">judge_whether_available_or_not</text>
<text text-anchor="start" x="-185.969" y="-207.293" font-family="Times,serif" font-size="14.00">obtain_the_detail_of_publication</text>
<text text-anchor="start" x="-185.969" y="-193.293" font-family="Times,serif" font-size="14.00">search_publication</text>
<text text-anchor="start" x="-185.969" y="-179.293" font-family="Times,serif" font-size="14.00">show</text>
<polyline fill="none" stroke="black" points="-193.969,-172.493 7.87286,-172.493 "/>
<polyline fill="none" stroke="black" points="-193.969,-148.493 7.87286,-148.493 "/>
<text text-anchor="start" x="-185.969" y="-133.293" font-family="Times,serif" font-size="14.00">_layout</text>
</g>
<!-- ApplicationController&#45;&gt;PublicationsController -->
<g id="edge5" class="edge"><title>ApplicationController&#45;&gt;PublicationsController</title>
<path fill="none" stroke="black" d="M-30.2582,-50.4198C-38.5916,-72.9918 -48.6153,-100.142 -58.1825,-126.056"/>
</g>
<!-- ReservePublicationsController -->
<g id="node13" class="node"><title>ReservePublicationsController</title>
<path fill="none" stroke="black" d="M-328.497,97.2246C-328.497,97.2246 -164.641,97.2246 -164.641,97.2246 -158.641,97.2246 -152.641,91.2246 -152.641,85.2246 -152.641,85.2246 -152.641,-50.7754 -152.641,-50.7754 -152.641,-56.7754 -158.641,-62.7754 -164.641,-62.7754 -164.641,-62.7754 -328.497,-62.7754 -328.497,-62.7754 -334.497,-62.7754 -340.497,-56.7754 -340.497,-50.7754 -340.497,-50.7754 -340.497,85.2246 -340.497,85.2246 -340.497,91.2246 -334.497,97.2246 -328.497,97.2246"/>
<text text-anchor="middle" x="-246.569" y="-47.5754" font-family="Times,serif" font-size="14.00">ReservePublicationsController</text>
<polyline fill="none" stroke="black" points="-340.497,-40.7754 -152.641,-40.7754 "/>
<text text-anchor="start" x="-332.497" y="-25.5754" font-family="Times,serif" font-size="14.00">create</text>
<text text-anchor="start" x="-332.497" y="-11.5754" font-family="Times,serif" font-size="14.00">destroy</text>
<polyline fill="none" stroke="black" points="-340.497,-4.77542 -152.641,-4.77542 "/>
<polyline fill="none" stroke="black" points="-340.497,19.2246 -152.641,19.2246 "/>
<text text-anchor="start" x="-332.497" y="34.4246" font-family="Times,serif" font-size="14.00">_layout</text>
<text text-anchor="start" x="-332.497" y="48.4246" font-family="Times,serif" font-size="14.00">reservation_params</text>
<text text-anchor="start" x="-332.497" y="62.4246" font-family="Times,serif" font-size="14.00">reserve_publication</text>
<text text-anchor="start" x="-332.497" y="76.4246" font-family="Times,serif" font-size="14.00">set_meta</text>
<text text-anchor="start" x="-332.497" y="90.4246" font-family="Times,serif" font-size="14.00">set_reservation</text>
</g>
<!-- ApplicationController&#45;&gt;ReservePublicationsController -->
<g id="edge6" class="edge"><title>ApplicationController&#45;&gt;ReservePublicationsController</title>
<path fill="none" stroke="black" d="M-81.0605,6.29261C-103.436,7.77051 -128.578,9.4312 -152.381,11.0034"/>
</g>
<!-- ReturnPublicationsController -->
<g id="node14" class="node"><title>ReturnPublicationsController</title>
<path fill="none" stroke="black" d="M131.24,87.8747C131.24,87.8747 288.11,87.8747 288.11,87.8747 294.11,87.8747 300.11,81.8747 300.11,75.8747 300.11,75.8747 300.11,-4.12531 300.11,-4.12531 300.11,-10.1253 294.11,-16.1253 288.11,-16.1253 288.11,-16.1253 131.24,-16.1253 131.24,-16.1253 125.24,-16.1253 119.24,-10.1253 119.24,-4.12531 119.24,-4.12531 119.24,75.8747 119.24,75.8747 119.24,81.8747 125.24,87.8747 131.24,87.8747"/>
<text text-anchor="middle" x="209.675" y="-0.925312" font-family="Times,serif" font-size="14.00">ReturnPublicationsController</text>
<polyline fill="none" stroke="black" points="119.24,5.87469 300.11,5.87469 "/>
<text text-anchor="start" x="127.24" y="21.0747" font-family="Times,serif" font-size="14.00">create</text>
<text text-anchor="start" x="127.24" y="35.0747" font-family="Times,serif" font-size="14.00">return_publication</text>
<polyline fill="none" stroke="black" points="119.24,41.8747 300.11,41.8747 "/>
<polyline fill="none" stroke="black" points="119.24,65.8747 300.11,65.8747 "/>
<text text-anchor="start" x="127.24" y="81.0747" font-family="Times,serif" font-size="14.00">_layout</text>
</g>
<!-- ApplicationController&#45;&gt;ReturnPublicationsController -->
<g id="edge7" class="edge"><title>ApplicationController&#45;&gt;ReturnPublicationsController</title>
<path fill="none" stroke="black" d="M58.8037,12.4905C77.8731,15.4461 98.8172,18.6923 118.871,21.8006"/>
</g>
<!-- SessionsController -->
<g id="node15" class="node"><title>SessionsController</title>
<path fill="none" stroke="black" d="M-307.278,322.892C-307.278,322.892 -200.168,322.892 -200.168,322.892 -194.168,322.892 -188.168,316.892 -188.168,310.892 -188.168,310.892 -188.168,188.892 -188.168,188.892 -188.168,182.892 -194.168,176.892 -200.168,176.892 -200.168,176.892 -307.278,176.892 -307.278,176.892 -313.278,176.892 -319.278,182.892 -319.278,188.892 -319.278,188.892 -319.278,310.892 -319.278,310.892 -319.278,316.892 -313.278,322.892 -307.278,322.892"/>
<text text-anchor="middle" x="-253.723" y="192.092" font-family="Times,serif" font-size="14.00">SessionsController</text>
<polyline fill="none" stroke="black" points="-319.278,198.892 -188.168,198.892 "/>
<text text-anchor="start" x="-311.278" y="214.092" font-family="Times,serif" font-size="14.00">create</text>
<text text-anchor="start" x="-311.278" y="228.092" font-family="Times,serif" font-size="14.00">destroy</text>
<text text-anchor="start" x="-311.278" y="242.092" font-family="Times,serif" font-size="14.00">go_to_user</text>
<text text-anchor="start" x="-311.278" y="256.092" font-family="Times,serif" font-size="14.00">new</text>
<text text-anchor="start" x="-311.278" y="270.092" font-family="Times,serif" font-size="14.00">subdomain_login_id</text>
<polyline fill="none" stroke="black" points="-319.278,276.892 -188.168,276.892 "/>
<polyline fill="none" stroke="black" points="-319.278,300.892 -188.168,300.892 "/>
<text text-anchor="start" x="-311.278" y="316.092" font-family="Times,serif" font-size="14.00">_layout</text>
</g>
<!-- ApplicationController&#45;&gt;SessionsController -->
<g id="edge8" class="edge"><title>ApplicationController&#45;&gt;SessionsController</title>
<path fill="none" stroke="black" d="M-61.905,53.703C-98.5999,91.234 -148.452,142.222 -188.136,182.811"/>
</g>
<!-- UsersController -->
<g id="node16" class="node"><title>UsersController</title>
<path fill="none" stroke="black" d="M122.596,373.027C122.596,373.027 293.472,373.027 293.472,373.027 299.472,373.027 305.472,367.027 305.472,361.027 305.472,361.027 305.472,155.027 305.472,155.027 305.472,149.027 299.472,143.027 293.472,143.027 293.472,143.027 122.596,143.027 122.596,143.027 116.596,143.027 110.596,149.027 110.596,155.027 110.596,155.027 110.596,361.027 110.596,361.027 110.596,367.027 116.596,373.027 122.596,373.027"/>
<text text-anchor="middle" x="208.034" y="158.227" font-family="Times,serif" font-size="14.00">UsersController</text>
<polyline fill="none" stroke="black" points="110.596,165.027 305.472,165.027 "/>
<text text-anchor="start" x="118.596" y="180.227" font-family="Times,serif" font-size="14.00">create</text>
<text text-anchor="start" x="118.596" y="194.227" font-family="Times,serif" font-size="14.00">destroy</text>
<text text-anchor="start" x="118.596" y="208.227" font-family="Times,serif" font-size="14.00">edit</text>
<text text-anchor="start" x="118.596" y="222.227" font-family="Times,serif" font-size="14.00">new</text>
<text text-anchor="start" x="118.596" y="236.227" font-family="Times,serif" font-size="14.00">show</text>
<text text-anchor="start" x="118.596" y="250.227" font-family="Times,serif" font-size="14.00">update</text>
<polyline fill="none" stroke="black" points="110.596,257.027 305.472,257.027 "/>
<polyline fill="none" stroke="black" points="110.596,281.027 305.472,281.027 "/>
<text text-anchor="start" x="118.596" y="296.227" font-family="Times,serif" font-size="14.00">_layout</text>
<text text-anchor="start" x="118.596" y="310.227" font-family="Times,serif" font-size="14.00">set_library_to_params</text>
<text text-anchor="start" x="118.596" y="324.227" font-family="Times,serif" font-size="14.00">set_non_subdomained_login_id</text>
<text text-anchor="start" x="118.596" y="338.227" font-family="Times,serif" font-size="14.00">set_subdomained_login_id</text>
<text text-anchor="start" x="118.596" y="352.227" font-family="Times,serif" font-size="14.00">set_user</text>
<text text-anchor="start" x="118.596" y="366.227" font-family="Times,serif" font-size="14.00">user_params</text>
</g>
<!-- ApplicationController&#45;&gt;UsersController -->
<g id="edge9" class="edge"><title>ApplicationController&#45;&gt;UsersController</title>
<path fill="none" stroke="black" d="M33.5663,53.8542C55.8338,79.9131 83.7055,112.53 110.593,143.996"/>
</g>
</g>
</svg>
