<?xml version="1.0" encoding="UTF-8" standalone="no"?>
<!DOCTYPE svg PUBLIC "-//W3C//DTD SVG 1.1//EN"
 "http://www.w3.org/Graphics/SVG/1.1/DTD/svg11.dtd">
<!-- Generated by graphviz version 2.38.0 (20140413.2041)
 -->
<!-- Title: controllers_diagram Pages: 1 -->
<svg width="1029pt" height="1135pt"
 viewBox="0.00 0.00 1028.88 1135.00" xmlns="http://www.w3.org/2000/svg" xmlns:xlink="http://www.w3.org/1999/xlink">
<g id="graph0" class="graph" transform="scale(1 1) rotate(0) translate(459.45 606.5)">
<title>controllers_diagram</title>
<polygon fill="white" stroke="none" points="-459.45,528.5 -459.45,-606.5 569.428,-606.5 569.428,528.5 -459.45,528.5"/>
<!-- _diagram_info -->
<g id="node1" class="node"><title>_diagram_info</title>
<text text-anchor="start" x="-447.45" y="115.9" font-family="Times,serif" font-size="13.00">Controllers diagram</text>
<text text-anchor="start" x="-447.45" y="128.9" font-family="Times,serif" font-size="13.00">Date: Jun 24 2014 &#45; 03:56</text>
<text text-anchor="start" x="-447.45" y="141.9" font-family="Times,serif" font-size="13.00">Migration version: 20140622160911</text>
<text text-anchor="start" x="-447.45" y="154.9" font-family="Times,serif" font-size="13.00">Generated by RailRoady 1.1.1</text>
<text text-anchor="start" x="-447.45" y="167.9" font-family="Times,serif" font-size="13.00">http://railroady.prestonlee.com</text>
</g>
<!-- Admin::BooksController -->
<g id="node2" class="node"><title>Admin::BooksController</title>
<path fill="none" stroke="black" d="M-128,419C-128,419 4,419 4,419 10,419 16,413 16,407 16,407 16,229 16,229 16,223 10,217 4,217 4,217 -128,217 -128,217 -134,217 -140,223 -140,229 -140,229 -140,407 -140,407 -140,413 -134,419 -128,419"/>
<text text-anchor="middle" x="-62" y="232.2" font-family="Times,serif" font-size="14.00">Admin::BooksController</text>
<polyline fill="none" stroke="black" points="-140,239 16,239 "/>
<text text-anchor="start" x="-132" y="254.2" font-family="Times,serif" font-size="14.00">create</text>
<text text-anchor="start" x="-132" y="268.2" font-family="Times,serif" font-size="14.00">destroy</text>
<text text-anchor="start" x="-132" y="282.2" font-family="Times,serif" font-size="14.00">edit</text>
<text text-anchor="start" x="-132" y="296.2" font-family="Times,serif" font-size="14.00">new</text>
<text text-anchor="start" x="-132" y="310.2" font-family="Times,serif" font-size="14.00">show</text>
<text text-anchor="start" x="-132" y="324.2" font-family="Times,serif" font-size="14.00">update</text>
<polyline fill="none" stroke="black" points="-140,331 16,331 "/>
<polyline fill="none" stroke="black" points="-140,355 16,355 "/>
<text text-anchor="start" x="-132" y="370.2" font-family="Times,serif" font-size="14.00">_layout</text>
<text text-anchor="start" x="-132" y="384.2" font-family="Times,serif" font-size="14.00">book_params</text>
<text text-anchor="start" x="-132" y="398.2" font-family="Times,serif" font-size="14.00">set_book</text>
<text text-anchor="start" x="-132" y="412.2" font-family="Times,serif" font-size="14.00">set_library_to_params</text>
</g>
<!-- Admin::MagazinesController -->
<g id="node3" class="node"><title>Admin::MagazinesController</title>
<path fill="none" stroke="black" d="M396.572,384C396.572,384 553.428,384 553.428,384 559.428,384 565.428,378 565.428,372 565.428,372 565.428,194 565.428,194 565.428,188 559.428,182 553.428,182 553.428,182 396.572,182 396.572,182 390.572,182 384.572,188 384.572,194 384.572,194 384.572,372 384.572,372 384.572,378 390.572,384 396.572,384"/>
<text text-anchor="middle" x="475" y="197.2" font-family="Times,serif" font-size="14.00">Admin::MagazinesController</text>
<polyline fill="none" stroke="black" points="384.572,204 565.428,204 "/>
<text text-anchor="start" x="392.572" y="219.2" font-family="Times,serif" font-size="14.00">create</text>
<text text-anchor="start" x="392.572" y="233.2" font-family="Times,serif" font-size="14.00">destroy</text>
<text text-anchor="start" x="392.572" y="247.2" font-family="Times,serif" font-size="14.00">edit</text>
<text text-anchor="start" x="392.572" y="261.2" font-family="Times,serif" font-size="14.00">new</text>
<text text-anchor="start" x="392.572" y="275.2" font-family="Times,serif" font-size="14.00">show</text>
<text text-anchor="start" x="392.572" y="289.2" font-family="Times,serif" font-size="14.00">update</text>
<polyline fill="none" stroke="black" points="384.572,296 565.428,296 "/>
<polyline fill="none" stroke="black" points="384.572,320 565.428,320 "/>
<text text-anchor="start" x="392.572" y="335.2" font-family="Times,serif" font-size="14.00">_layout</text>
<text text-anchor="start" x="392.572" y="349.2" font-family="Times,serif" font-size="14.00">magazine_params</text>
<text text-anchor="start" x="392.572" y="363.2" font-family="Times,serif" font-size="14.00">set_library_to_params</text>
<text text-anchor="start" x="392.572" y="377.2" font-family="Times,serif" font-size="14.00">set_magazine</text>
</g>
<!-- Admin::PublicationsController -->
<g id="node4" class="node"><title>Admin::PublicationsController</title>
<path fill="none" stroke="black" d="M327.283,524C327.283,524 492.717,524 492.717,524 498.717,524 504.717,518 504.717,512 504.717,512 504.717,446 504.717,446 504.717,440 498.717,434 492.717,434 492.717,434 327.283,434 327.283,434 321.283,434 315.283,440 315.283,446 315.283,446 315.283,512 315.283,512 315.283,518 321.283,524 327.283,524"/>
<text text-anchor="middle" x="410" y="449.2" font-family="Times,serif" font-size="14.00">Admin::PublicationsController</text>
<polyline fill="none" stroke="black" points="315.283,456 504.717,456 "/>
<text text-anchor="start" x="323.283" y="471.2" font-family="Times,serif" font-size="14.00">index</text>
<polyline fill="none" stroke="black" points="315.283,478 504.717,478 "/>
<polyline fill="none" stroke="black" points="315.283,502 504.717,502 "/>
<text text-anchor="start" x="323.283" y="517.2" font-family="Times,serif" font-size="14.00">_layout</text>
</g>
<!-- Admin::SessionsController -->
<g id="node5" class="node"><title>Admin::SessionsController</title>
<path fill="none" stroke="black" d="M-58.2241,-456C-58.2241,-456 86.2241,-456 86.2241,-456 92.2241,-456 98.2241,-462 98.2241,-468 98.2241,-468 98.2241,-590 98.2241,-590 98.2241,-596 92.2241,-602 86.2241,-602 86.2241,-602 -58.2241,-602 -58.2241,-602 -64.2241,-602 -70.2241,-596 -70.2241,-590 -70.2241,-590 -70.2241,-468 -70.2241,-468 -70.2241,-462 -64.2241,-456 -58.2241,-456"/>
<text text-anchor="middle" x="14" y="-586.8" font-family="Times,serif" font-size="14.00">Admin::SessionsController</text>
<polyline fill="none" stroke="black" points="-70.2241,-580 98.2241,-580 "/>
<text text-anchor="start" x="-62.2241" y="-564.8" font-family="Times,serif" font-size="14.00">create</text>
<text text-anchor="start" x="-62.2241" y="-550.8" font-family="Times,serif" font-size="14.00">destroy</text>
<text text-anchor="start" x="-62.2241" y="-536.8" font-family="Times,serif" font-size="14.00">go_to_staff</text>
<text text-anchor="start" x="-62.2241" y="-522.8" font-family="Times,serif" font-size="14.00">new</text>
<text text-anchor="start" x="-62.2241" y="-508.8" font-family="Times,serif" font-size="14.00">subdomain_login_id</text>
<polyline fill="none" stroke="black" points="-70.2241,-502 98.2241,-502 "/>
<polyline fill="none" stroke="black" points="-70.2241,-478 98.2241,-478 "/>
<text text-anchor="start" x="-62.2241" y="-462.8" font-family="Times,serif" font-size="14.00">_layout</text>
</g>
<!-- Admin::StaffsController -->
<g id="node6" class="node"><title>Admin::StaffsController</title>
<path fill="none" stroke="black" d="M361.562,-1C361.562,-1 532.438,-1 532.438,-1 538.438,-1 544.438,-7 544.438,-13 544.438,-13 544.438,-233 544.438,-233 544.438,-239 538.438,-245 532.438,-245 532.438,-245 361.562,-245 361.562,-245 355.562,-245 349.562,-239 349.562,-233 349.562,-233 349.562,-13 349.562,-13 349.562,-7 355.562,-1 361.562,-1"/>
<text text-anchor="middle" x="447" y="-229.8" font-family="Times,serif" font-size="14.00">Admin::StaffsController</text>
<polyline fill="none" stroke="black" points="349.562,-223 544.438,-223 "/>
<text text-anchor="start" x="357.562" y="-207.8" font-family="Times,serif" font-size="14.00">create</text>
<text text-anchor="start" x="357.562" y="-193.8" font-family="Times,serif" font-size="14.00">destroy</text>
<text text-anchor="start" x="357.562" y="-179.8" font-family="Times,serif" font-size="14.00">edit</text>
<text text-anchor="start" x="357.562" y="-165.8" font-family="Times,serif" font-size="14.00">index</text>
<text text-anchor="start" x="357.562" y="-151.8" font-family="Times,serif" font-size="14.00">new</text>
<text text-anchor="start" x="357.562" y="-137.8" font-family="Times,serif" font-size="14.00">show</text>
<text text-anchor="start" x="357.562" y="-123.8" font-family="Times,serif" font-size="14.00">update</text>
<polyline fill="none" stroke="black" points="349.562,-117 544.438,-117 "/>
<polyline fill="none" stroke="black" points="349.562,-93 544.438,-93 "/>
<text text-anchor="start" x="357.562" y="-77.8" font-family="Times,serif" font-size="14.00">_layout</text>
<text text-anchor="start" x="357.562" y="-63.8" font-family="Times,serif" font-size="14.00">set_library_to_params</text>
<text text-anchor="start" x="357.562" y="-49.8" font-family="Times,serif" font-size="14.00">set_non_subdomained_login_id</text>
<text text-anchor="start" x="357.562" y="-35.8" font-family="Times,serif" font-size="14.00">set_staff</text>
<text text-anchor="start" x="357.562" y="-21.8" font-family="Times,serif" font-size="14.00">set_subdomained_login_id</text>
<text text-anchor="start" x="357.562" y="-7.8" font-family="Times,serif" font-size="14.00">staff_params</text>
</g>
<!-- Admin::UsersController -->
<g id="node7" class="node"><title>Admin::UsersController</title>
<path fill="none" stroke="black" d="M361.562,-316C361.562,-316 532.438,-316 532.438,-316 538.438,-316 544.438,-322 544.438,-328 544.438,-328 544.438,-548 544.438,-548 544.438,-554 538.438,-560 532.438,-560 532.438,-560 361.562,-560 361.562,-560 355.562,-560 349.562,-554 349.562,-548 349.562,-548 349.562,-328 349.562,-328 349.562,-322 355.562,-316 361.562,-316"/>
<text text-anchor="middle" x="447" y="-544.8" font-family="Times,serif" font-size="14.00">Admin::UsersController</text>
<polyline fill="none" stroke="black" points="349.562,-538 544.438,-538 "/>
<text text-anchor="start" x="357.562" y="-522.8" font-family="Times,serif" font-size="14.00">create</text>
<text text-anchor="start" x="357.562" y="-508.8" font-family="Times,serif" font-size="14.00">destroy</text>
<text text-anchor="start" x="357.562" y="-494.8" font-family="Times,serif" font-size="14.00">edit</text>
<text text-anchor="start" x="357.562" y="-480.8" font-family="Times,serif" font-size="14.00">index</text>
<text text-anchor="start" x="357.562" y="-466.8" font-family="Times,serif" font-size="14.00">new</text>
<text text-anchor="start" x="357.562" y="-452.8" font-family="Times,serif" font-size="14.00">show</text>
<text text-anchor="start" x="357.562" y="-438.8" font-family="Times,serif" font-size="14.00">update</text>
<polyline fill="none" stroke="black" points="349.562,-432 544.438,-432 "/>
<polyline fill="none" stroke="black" points="349.562,-408 544.438,-408 "/>
<text text-anchor="start" x="357.562" y="-392.8" font-family="Times,serif" font-size="14.00">_layout</text>
<text text-anchor="start" x="357.562" y="-378.8" font-family="Times,serif" font-size="14.00">set_library_to_params</text>
<text text-anchor="start" x="357.562" y="-364.8" font-family="Times,serif" font-size="14.00">set_non_subdomained_login_id</text>
<text text-anchor="start" x="357.562" y="-350.8" font-family="Times,serif" font-size="14.00">set_subdomained_login_id</text>
<text text-anchor="start" x="357.562" y="-336.8" font-family="Times,serif" font-size="14.00">set_user</text>
<text text-anchor="start" x="357.562" y="-322.8" font-family="Times,serif" font-size="14.00">user_params</text>
</g>
<!-- AdminController -->
<g id="node8" class="node"><title>AdminController</title>
<path fill="none" stroke="black" d="M186.783,-491C186.783,-491 275.217,-491 275.217,-491 281.217,-491 287.217,-497 287.217,-503 287.217,-503 287.217,-583 287.217,-583 287.217,-589 281.217,-595 275.217,-595 275.217,-595 186.783,-595 186.783,-595 180.783,-595 174.783,-589 174.783,-583 174.783,-583 174.783,-503 174.783,-503 174.783,-497 180.783,-491 186.783,-491"/>
<text text-anchor="middle" x="231" y="-579.8" font-family="Times,serif" font-size="14.00">AdminController</text>
<polyline fill="none" stroke="black" points="174.783,-573 287.217,-573 "/>
<text text-anchor="start" x="182.783" y="-557.8" font-family="Times,serif" font-size="14.00">current_library</text>
<text text-anchor="start" x="182.783" y="-543.8" font-family="Times,serif" font-size="14.00">current_staff</text>
<polyline fill="none" stroke="black" points="174.783,-537 287.217,-537 "/>
<polyline fill="none" stroke="black" points="174.783,-513 287.217,-513 "/>
<text text-anchor="start" x="182.783" y="-497.8" font-family="Times,serif" font-size="14.00">_layout</text>
</g>
<!-- ApplicationController -->
<g id="node9" class="node"><title>ApplicationController</title>
<path fill="none" stroke="black" d="M-94.0379,78.8957C-94.0379,78.8957 21.6037,78.8957 21.6037,78.8957 27.6037,78.8957 33.6037,72.8957 33.6037,66.8957 33.6037,66.8957 33.6037,-13.1043 33.6037,-13.1043 33.6037,-19.1043 27.6037,-25.1043 21.6037,-25.1043 21.6037,-25.1043 -94.0379,-25.1043 -94.0379,-25.1043 -100.038,-25.1043 -106.038,-19.1043 -106.038,-13.1043 -106.038,-13.1043 -106.038,66.8957 -106.038,66.8957 -106.038,72.8957 -100.038,78.8957 -94.0379,78.8957"/>
<text text-anchor="middle" x="-36.2171" y="-9.90432" font-family="Times,serif" font-size="14.00">ApplicationController</text>
<polyline fill="none" stroke="black" points="-106.038,-3.10432 33.6037,-3.10432 "/>
<text text-anchor="start" x="-98.0379" y="12.0957" font-family="Times,serif" font-size="14.00">current_library</text>
<text text-anchor="start" x="-98.0379" y="26.0957" font-family="Times,serif" font-size="14.00">current_user</text>
<polyline fill="none" stroke="black" points="-106.038,32.8957 33.6037,32.8957 "/>
<polyline fill="none" stroke="black" points="-106.038,56.8957 33.6037,56.8957 "/>
<text text-anchor="start" x="-98.0379" y="72.0957" font-family="Times,serif" font-size="14.00">_layout</text>
</g>
<!-- BooksController -->
<g id="node10" class="node"><title>BooksController</title>
<path fill="none" stroke="black" d="M181.987,-64.5186C181.987,-64.5186 267.318,-64.5186 267.318,-64.5186 273.318,-64.5186 279.318,-70.5186 279.318,-76.5186 279.318,-76.5186 279.318,-156.519 279.318,-156.519 279.318,-162.519 273.318,-168.519 267.318,-168.519 267.318,-168.519 181.987,-168.519 181.987,-168.519 175.987,-168.519 169.987,-162.519 169.987,-156.519 169.987,-156.519 169.987,-76.5186 169.987,-76.5186 169.987,-70.5186 175.987,-64.5186 181.987,-64.5186"/>
<text text-anchor="middle" x="224.652" y="-153.319" font-family="Times,serif" font-size="14.00">BooksController</text>
<polyline fill="none" stroke="black" points="169.987,-146.519 279.318,-146.519 "/>
<text text-anchor="start" x="177.987" y="-131.319" font-family="Times,serif" font-size="14.00">show</text>
<polyline fill="none" stroke="black" points="169.987,-124.519 279.318,-124.519 "/>
<polyline fill="none" stroke="black" points="169.987,-100.519 279.318,-100.519 "/>
<text text-anchor="start" x="177.987" y="-85.3186" font-family="Times,serif" font-size="14.00">_layout</text>
<text text-anchor="start" x="177.987" y="-71.3186" font-family="Times,serif" font-size="14.00">set_book</text>
</g>
<!-- ApplicationController&#45;&gt;BooksController -->
<g id="edge1" class="edge"><title>ApplicationController&#45;&gt;BooksController</title>
<path fill="none" stroke="black" d="M33.6911,-11.5367C76.4024,-35.0174 130.239,-64.6145 169.854,-86.3928"/>
</g>
<!-- BorrowingsController -->
<g id="node11" class="node"><title>BorrowingsController</title>
<path fill="none" stroke="black" d="M-313.198,380.837C-313.198,380.837 -211.55,380.837 -211.55,380.837 -205.55,380.837 -199.55,374.837 -199.55,368.837 -199.55,368.837 -199.55,232.837 -199.55,232.837 -199.55,226.837 -205.55,220.837 -211.55,220.837 -211.55,220.837 -313.198,220.837 -313.198,220.837 -319.198,220.837 -325.198,226.837 -325.198,232.837 -325.198,232.837 -325.198,368.837 -325.198,368.837 -325.198,374.837 -319.198,380.837 -313.198,380.837"/>
<text text-anchor="middle" x="-262.374" y="236.037" font-family="Times,serif" font-size="14.00">BorrowingsController</text>
<polyline fill="none" stroke="black" points="-325.198,242.837 -199.55,242.837 "/>
<text text-anchor="start" x="-317.198" y="258.037" font-family="Times,serif" font-size="14.00">create</text>
<text text-anchor="start" x="-317.198" y="272.037" font-family="Times,serif" font-size="14.00">destroy</text>
<text text-anchor="start" x="-317.198" y="286.037" font-family="Times,serif" font-size="14.00">update</text>
<polyline fill="none" stroke="black" points="-325.198,292.837 -199.55,292.837 "/>
<polyline fill="none" stroke="black" points="-325.198,316.837 -199.55,316.837 "/>
<text text-anchor="start" x="-317.198" y="332.037" font-family="Times,serif" font-size="14.00">_layout</text>
<text text-anchor="start" x="-317.198" y="346.037" font-family="Times,serif" font-size="14.00">borrowing_params</text>
<text text-anchor="start" x="-317.198" y="360.037" font-family="Times,serif" font-size="14.00">set_borrowing</text>
<text text-anchor="start" x="-317.198" y="374.037" font-family="Times,serif" font-size="14.00">set_meta</text>
</g>
<!-- ApplicationController&#45;&gt;BorrowingsController -->
<g id="edge2" class="edge"><title>ApplicationController&#45;&gt;BorrowingsController</title>
<path fill="none" stroke="black" d="M-79.2878,79.0668C-113.25,120.205 -161.102,178.168 -199.368,224.519"/>
</g>
<!-- LibrariesController -->
<g id="node12" class="node"><title>LibrariesController</title>
<path fill="none" stroke="black" d="M-358.774,-251.467C-358.774,-251.467 -258.698,-251.467 -258.698,-251.467 -252.698,-251.467 -246.698,-257.467 -246.698,-263.467 -246.698,-263.467 -246.698,-441.467 -246.698,-441.467 -246.698,-447.467 -252.698,-453.467 -258.698,-453.467 -258.698,-453.467 -358.774,-453.467 -358.774,-453.467 -364.774,-453.467 -370.774,-447.467 -370.774,-441.467 -370.774,-441.467 -370.774,-263.467 -370.774,-263.467 -370.774,-257.467 -364.774,-251.467 -358.774,-251.467"/>
<text text-anchor="middle" x="-308.736" y="-438.267" font-family="Times,serif" font-size="14.00">LibrariesController</text>
<polyline fill="none" stroke="black" points="-370.774,-431.467 -246.698,-431.467 "/>
<text text-anchor="start" x="-362.774" y="-416.267" font-family="Times,serif" font-size="14.00">create</text>
<text text-anchor="start" x="-362.774" y="-402.267" font-family="Times,serif" font-size="14.00">destroy</text>
<text text-anchor="start" x="-362.774" y="-388.267" font-family="Times,serif" font-size="14.00">edit</text>
<text text-anchor="start" x="-362.774" y="-374.267" font-family="Times,serif" font-size="14.00">index</text>
<text text-anchor="start" x="-362.774" y="-360.267" font-family="Times,serif" font-size="14.00">new</text>
<text text-anchor="start" x="-362.774" y="-346.267" font-family="Times,serif" font-size="14.00">show</text>
<text text-anchor="start" x="-362.774" y="-332.267" font-family="Times,serif" font-size="14.00">update</text>
<polyline fill="none" stroke="black" points="-370.774,-325.467 -246.698,-325.467 "/>
<polyline fill="none" stroke="black" points="-370.774,-301.467 -246.698,-301.467 "/>
<text text-anchor="start" x="-362.774" y="-286.267" font-family="Times,serif" font-size="14.00">_layout</text>
<text text-anchor="start" x="-362.774" y="-272.267" font-family="Times,serif" font-size="14.00">library_params</text>
<text text-anchor="start" x="-362.774" y="-258.267" font-family="Times,serif" font-size="14.00">set_library</text>
</g>
<!-- ApplicationController&#45;&gt;LibrariesController -->
<g id="edge3" class="edge"><title>ApplicationController&#45;&gt;LibrariesController</title>
<path fill="none" stroke="black" d="M-73.8236,-25.4548C-118.431,-87.5508 -193.441,-191.969 -246.69,-266.096"/>
</g>
<!-- MagazinesController -->
<g id="node13" class="node"><title>MagazinesController</title>
<path fill="none" stroke="black" d="M180.899,-329.093C180.899,-329.093 291.086,-329.093 291.086,-329.093 297.086,-329.093 303.086,-335.093 303.086,-341.093 303.086,-341.093 303.086,-421.093 303.086,-421.093 303.086,-427.093 297.086,-433.093 291.086,-433.093 291.086,-433.093 180.899,-433.093 180.899,-433.093 174.899,-433.093 168.899,-427.093 168.899,-421.093 168.899,-421.093 168.899,-341.093 168.899,-341.093 168.899,-335.093 174.899,-329.093 180.899,-329.093"/>
<text text-anchor="middle" x="235.992" y="-417.893" font-family="Times,serif" font-size="14.00">MagazinesController</text>
<polyline fill="none" stroke="black" points="168.899,-411.093 303.086,-411.093 "/>
<text text-anchor="start" x="176.899" y="-395.893" font-family="Times,serif" font-size="14.00">show</text>
<polyline fill="none" stroke="black" points="168.899,-389.093 303.086,-389.093 "/>
<polyline fill="none" stroke="black" points="168.899,-365.093 303.086,-365.093 "/>
<text text-anchor="start" x="176.899" y="-349.893" font-family="Times,serif" font-size="14.00">_layout</text>
<text text-anchor="start" x="176.899" y="-335.893" font-family="Times,serif" font-size="14.00">set_magazine</text>
</g>
<!-- ApplicationController&#45;&gt;MagazinesController -->
<g id="edge4" class="edge"><title>ApplicationController&#45;&gt;MagazinesController</title>
<path fill="none" stroke="black" d="M-1.46514,-25.1908C50.7782,-103.493 148.985,-250.685 201.232,-328.995"/>
</g>
<!-- PublicationsController -->
<g id="node14" class="node"><title>PublicationsController</title>
<path fill="none" stroke="black" d="M-103.04,-267.933C-103.04,-267.933 15.7254,-267.933 15.7254,-267.933 21.7254,-267.933 27.7254,-273.933 27.7254,-279.933 27.7254,-279.933 27.7254,-373.933 27.7254,-373.933 27.7254,-379.933 21.7254,-385.933 15.7254,-385.933 15.7254,-385.933 -103.04,-385.933 -103.04,-385.933 -109.04,-385.933 -115.04,-379.933 -115.04,-373.933 -115.04,-373.933 -115.04,-279.933 -115.04,-279.933 -115.04,-273.933 -109.04,-267.933 -103.04,-267.933"/>
<text text-anchor="middle" x="-43.6575" y="-370.733" font-family="Times,serif" font-size="14.00">PublicationsController</text>
<polyline fill="none" stroke="black" points="-115.04,-363.933 27.7254,-363.933 "/>
<text text-anchor="start" x="-107.04" y="-348.733" font-family="Times,serif" font-size="14.00">index</text>
<text text-anchor="start" x="-107.04" y="-334.733" font-family="Times,serif" font-size="14.00">show</text>
<polyline fill="none" stroke="black" points="-115.04,-327.933 27.7254,-327.933 "/>
<polyline fill="none" stroke="black" points="-115.04,-303.933 27.7254,-303.933 "/>
<text text-anchor="start" x="-107.04" y="-288.733" font-family="Times,serif" font-size="14.00">_layout</text>
<text text-anchor="start" x="-107.04" y="-274.733" font-family="Times,serif" font-size="14.00">set_publication</text>
</g>
<!-- ApplicationController&#45;&gt;PublicationsController -->
<g id="edge5" class="edge"><title>ApplicationController&#45;&gt;PublicationsController</title>
<path fill="none" stroke="black" d="M-37.315,-25.313C-38.6752,-89.9995 -40.9871,-199.943 -42.4122,-267.713"/>
</g>
<!-- ReservationsController -->
<g id="node15" class="node"><title>ReservationsController</title>
<path fill="none" stroke="black" d="M-373.092,49.925C-373.092,49.925 -251.229,49.925 -251.229,49.925 -245.229,49.925 -239.229,43.925 -239.229,37.925 -239.229,37.925 -239.229,-84.075 -239.229,-84.075 -239.229,-90.075 -245.229,-96.075 -251.229,-96.075 -251.229,-96.075 -373.092,-96.075 -373.092,-96.075 -379.092,-96.075 -385.092,-90.075 -385.092,-84.075 -385.092,-84.075 -385.092,37.925 -385.092,37.925 -385.092,43.925 -379.092,49.925 -373.092,49.925"/>
<text text-anchor="middle" x="-312.161" y="-80.875" font-family="Times,serif" font-size="14.00">ReservationsController</text>
<polyline fill="none" stroke="black" points="-385.092,-74.075 -239.229,-74.075 "/>
<text text-anchor="start" x="-377.092" y="-58.875" font-family="Times,serif" font-size="14.00">create</text>
<text text-anchor="start" x="-377.092" y="-44.875" font-family="Times,serif" font-size="14.00">destroy</text>
<polyline fill="none" stroke="black" points="-385.092,-38.075 -239.229,-38.075 "/>
<polyline fill="none" stroke="black" points="-385.092,-14.075 -239.229,-14.075 "/>
<text text-anchor="start" x="-377.092" y="1.125" font-family="Times,serif" font-size="14.00">_layout</text>
<text text-anchor="start" x="-377.092" y="15.125" font-family="Times,serif" font-size="14.00">reservation_params</text>
<text text-anchor="start" x="-377.092" y="29.125" font-family="Times,serif" font-size="14.00">set_meta</text>
<text text-anchor="start" x="-377.092" y="43.125" font-family="Times,serif" font-size="14.00">set_reservation</text>
</g>
<!-- ApplicationController&#45;&gt;ReservationsController -->
<g id="edge6" class="edge"><title>ApplicationController&#45;&gt;ReservationsController</title>
<path fill="none" stroke="black" d="M-106.206,14.2214C-146.762,6.87703 -197.766,-2.35932 -238.871,-9.80294"/>
</g>
<!-- SessionsController -->
<g id="node16" class="node"><title>SessionsController</title>
<path fill="none" stroke="black" d="M216.859,202.262C216.859,202.262 323.97,202.262 323.97,202.262 329.97,202.262 335.97,196.262 335.97,190.262 335.97,190.262 335.97,68.2623 335.97,68.2623 335.97,62.2623 329.97,56.2623 323.97,56.2623 323.97,56.2623 216.859,56.2623 216.859,56.2623 210.859,56.2623 204.859,62.2623 204.859,68.2623 204.859,68.2623 204.859,190.262 204.859,190.262 204.859,196.262 210.859,202.262 216.859,202.262"/>
<text text-anchor="middle" x="270.415" y="71.4623" font-family="Times,serif" font-size="14.00">SessionsController</text>
<polyline fill="none" stroke="black" points="204.859,78.2623 335.97,78.2623 "/>
<text text-anchor="start" x="212.859" y="93.4623" font-family="Times,serif" font-size="14.00">create</text>
<text text-anchor="start" x="212.859" y="107.462" font-family="Times,serif" font-size="14.00">destroy</text>
<text text-anchor="start" x="212.859" y="121.462" font-family="Times,serif" font-size="14.00">go_to_user</text>
<text text-anchor="start" x="212.859" y="135.462" font-family="Times,serif" font-size="14.00">new</text>
<text text-anchor="start" x="212.859" y="149.462" font-family="Times,serif" font-size="14.00">subdomain_login_id</text>
<polyline fill="none" stroke="black" points="204.859,156.262 335.97,156.262 "/>
<polyline fill="none" stroke="black" points="204.859,180.262 335.97,180.262 "/>
<text text-anchor="start" x="212.859" y="195.462" font-family="Times,serif" font-size="14.00">_layout</text>
</g>
<!-- ApplicationController&#45;&gt;SessionsController -->
<g id="edge7" class="edge"><title>ApplicationController&#45;&gt;SessionsController</title>
<path fill="none" stroke="black" d="M33.746,50.2523C85.0938,67.3944 154.363,90.5193 204.687,107.32"/>
</g>
<!-- UsersController -->
<g id="node17" class="node"><title>UsersController</title>
<path fill="none" stroke="black" d="M55.3965,454.121C55.3965,454.121 226.273,454.121 226.273,454.121 232.273,454.121 238.273,448.121 238.273,442.121 238.273,442.121 238.273,236.121 238.273,236.121 238.273,230.121 232.273,224.121 226.273,224.121 226.273,224.121 55.3965,224.121 55.3965,224.121 49.3965,224.121 43.3965,230.121 43.3965,236.121 43.3965,236.121 43.3965,442.121 43.3965,442.121 43.3965,448.121 49.3965,454.121 55.3965,454.121"/>
<text text-anchor="middle" x="140.835" y="239.321" font-family="Times,serif" font-size="14.00">UsersController</text>
<polyline fill="none" stroke="black" points="43.3965,246.121 238.273,246.121 "/>
<text text-anchor="start" x="51.3965" y="261.321" font-family="Times,serif" font-size="14.00">create</text>
<text text-anchor="start" x="51.3965" y="275.321" font-family="Times,serif" font-size="14.00">destroy</text>
<text text-anchor="start" x="51.3965" y="289.321" font-family="Times,serif" font-size="14.00">edit</text>
<text text-anchor="start" x="51.3965" y="303.321" font-family="Times,serif" font-size="14.00">new</text>
<text text-anchor="start" x="51.3965" y="317.321" font-family="Times,serif" font-size="14.00">show</text>
<text text-anchor="start" x="51.3965" y="331.321" font-family="Times,serif" font-size="14.00">update</text>
<polyline fill="none" stroke="black" points="43.3965,338.121 238.273,338.121 "/>
<polyline fill="none" stroke="black" points="43.3965,362.121 238.273,362.121 "/>
<text text-anchor="start" x="51.3965" y="377.321" font-family="Times,serif" font-size="14.00">_layout</text>
<text text-anchor="start" x="51.3965" y="391.321" font-family="Times,serif" font-size="14.00">set_library_to_params</text>
<text text-anchor="start" x="51.3965" y="405.321" font-family="Times,serif" font-size="14.00">set_non_subdomained_login_id</text>
<text text-anchor="start" x="51.3965" y="419.321" font-family="Times,serif" font-size="14.00">set_subdomained_login_id</text>
<text text-anchor="start" x="51.3965" y="433.321" font-family="Times,serif" font-size="14.00">set_user</text>
<text text-anchor="start" x="51.3965" y="447.321" font-family="Times,serif" font-size="14.00">user_params</text>
</g>
<!-- ApplicationController&#45;&gt;UsersController -->
<g id="edge8" class="edge"><title>ApplicationController&#45;&gt;UsersController</title>
<path fill="none" stroke="black" d="M-6.58268,79.1551C15.8129,118.649 47.4114,174.372 75.6127,224.104"/>
</g>
</g>
</svg>
