<?xml version="1.0" encoding="UTF-8" standalone="no"?>
<!DOCTYPE svg PUBLIC "-//W3C//DTD SVG 1.1//EN"
 "http://www.w3.org/Graphics/SVG/1.1/DTD/svg11.dtd">
<!-- Generated by graphviz version 2.38.0 (20140413.2041)
 -->
<!-- Title: models_diagram Pages: 1 -->
<svg width="448pt" height="297pt"
 viewBox="0.00 0.00 447.80 297.00" xmlns="http://www.w3.org/2000/svg" xmlns:xlink="http://www.w3.org/1999/xlink">
<g id="graph0" class="graph" transform="scale(1 1) rotate(0) translate(4 293)">
<title>models_diagram</title>
<polygon fill="white" stroke="none" points="-4,4 -4,-293 443.796,-293 443.796,4 -4,4"/>
<!-- _diagram_info -->
<g id="node1" class="node"><title>_diagram_info</title>
<text text-anchor="start" x="8" y="-274.6" font-family="Times,serif" font-size="13.00">Models diagram</text>
<text text-anchor="start" x="8" y="-261.6" font-family="Times,serif" font-size="13.00">Date: Jul 10 2014 &#45; 07:57</text>
<text text-anchor="start" x="8" y="-248.6" font-family="Times,serif" font-size="13.00">Migration version: 20140622160911</text>
<text text-anchor="start" x="8" y="-235.6" font-family="Times,serif" font-size="13.00">Generated by RailRoady 1.1.1</text>
<text text-anchor="start" x="8" y="-222.6" font-family="Times,serif" font-size="13.00">http://railroady.prestonlee.com</text>
</g>
<!-- Book -->
<g id="node2" class="node"><title>Book</title>
<ellipse fill="none" stroke="black" cx="38.4497" cy="-18" rx="29.0429" ry="18"/>
<text text-anchor="middle" x="38.4497" y="-13.8" font-family="Times,serif" font-size="14.00">Book</text>
</g>
<!-- Borrowing -->
<g id="node3" class="node"><title>Borrowing</title>
<ellipse fill="none" stroke="black" cx="241.45" cy="-18" rx="48.3514" ry="18"/>
<text text-anchor="middle" x="241.45" y="-13.8" font-family="Times,serif" font-size="14.00">Borrowing</text>
</g>
<!-- Library -->
<g id="node4" class="node"><title>Library</title>
<ellipse fill="none" stroke="black" cx="273.45" cy="-162" rx="36.7489" ry="18"/>
<text text-anchor="middle" x="273.45" y="-157.8" font-family="Times,serif" font-size="14.00">Library</text>
</g>
<!-- Publication -->
<g id="node6" class="node"><title>Publication</title>
<ellipse fill="none" stroke="black" cx="130.45" cy="-90" rx="50.281" ry="18"/>
<text text-anchor="middle" x="130.45" y="-85.8" font-family="Times,serif" font-size="14.00">Publication</text>
</g>
<!-- Library&#45;&gt;Publication -->
<g id="edge5" class="edge"><title>Library&#45;&gt;Publication</title>
<path fill="none" stroke="#30b2c0" d="M240.849,-145.042C219.124,-134.407 190.51,-120.4 167.858,-109.312"/>
<ellipse fill="none" stroke="#30b2c0" cx="244.621" cy="-146.888" rx="4.00002" ry="4.00002"/>
<polygon fill="#30b2c0" stroke="#30b2c0" points="167.849,-109.307 160.846,-100.869 163.358,-107.109 158.868,-104.911 158.868,-104.911 158.868,-104.911 163.358,-107.109 156.889,-108.953 167.849,-109.307 167.849,-109.307"/>
</g>
<!-- Staff -->
<g id="node8" class="node"><title>Staff</title>
<ellipse fill="none" stroke="black" cx="356.45" cy="-90" rx="27.2842" ry="18"/>
<text text-anchor="middle" x="356.45" y="-85.8" font-family="Times,serif" font-size="14.00">Staff</text>
</g>
<!-- Library&#45;&gt;Staff -->
<g id="edge4" class="edge"><title>Library&#45;&gt;Staff</title>
<path fill="none" stroke="#d7a467" d="M297.514,-140.705C308.466,-131.468 321.397,-120.562 332.353,-111.322"/>
<ellipse fill="none" stroke="#d7a467" cx="294.11" cy="-143.576" rx="4.00002" ry="4.00002"/>
<polygon fill="#d7a467" stroke="#d7a467" points="332.636,-111.084 343.181,-108.077 336.458,-107.86 340.28,-104.637 340.28,-104.637 340.28,-104.637 336.458,-107.86 337.379,-101.197 332.636,-111.084 332.636,-111.084"/>
</g>
<!-- User -->
<g id="node9" class="node"><title>User</title>
<ellipse fill="none" stroke="black" cx="280.45" cy="-90" rx="27" ry="18"/>
<text text-anchor="middle" x="280.45" y="-85.8" font-family="Times,serif" font-size="14.00">User</text>
</g>
<!-- Library&#45;&gt;User -->
<g id="edge3" class="edge"><title>Library&#45;&gt;User</title>
<path fill="none" stroke="#bc4b4e" d="M275.986,-135.64C276.543,-130.063 277.137,-124.132 277.702,-118.476"/>
<ellipse fill="none" stroke="#bc4b4e" cx="275.578" cy="-139.716" rx="4" ry="4"/>
<polygon fill="#bc4b4e" stroke="#bc4b4e" points="277.744,-118.055 283.217,-108.552 278.242,-113.08 278.739,-108.104 278.739,-108.104 278.739,-108.104 278.242,-113.08 274.262,-107.657 277.744,-118.055 277.744,-118.055"/>
</g>
<!-- Magazine -->
<g id="node5" class="node"><title>Magazine</title>
<ellipse fill="none" stroke="black" cx="130.45" cy="-18" rx="44.9423" ry="18"/>
<text text-anchor="middle" x="130.45" y="-13.8" font-family="Times,serif" font-size="14.00">Magazine</text>
</g>
<!-- Publication&#45;&gt;Book -->
<g id="edge1" class="edge"><title>Publication&#45;&gt;Book</title>
<path fill="none" stroke="black" d="M110.032,-73.4647C93.939,-61.2201 71.7209,-44.315 56.3246,-32.6005"/>
</g>
<!-- Publication&#45;&gt;Borrowing -->
<g id="edge8" class="edge"><title>Publication&#45;&gt;Borrowing</title>
<path fill="none" stroke="#bf2a49" d="M161.121,-69.6577C176.048,-60.2446 193.992,-48.9282 209.131,-39.381"/>
<ellipse fill="none" stroke="#bf2a49" cx="157.645" cy="-71.8495" rx="4.00002" ry="4.00002"/>
<polygon fill="#bf2a49" stroke="#bf2a49" points="209.218,-39.3262 220.077,-37.7983 213.448,-36.659 217.677,-33.9919 217.677,-33.9919 217.677,-33.9919 213.448,-36.659 215.276,-30.1856 209.218,-39.3262 209.218,-39.3262"/>
</g>
<!-- Publication&#45;&gt;Magazine -->
<g id="edge7" class="edge"><title>Publication&#45;&gt;Magazine</title>
<path fill="none" stroke="black" d="M130.45,-71.6966C130.45,-60.8463 130.45,-46.9167 130.45,-36.1043"/>
</g>
<!-- Reservation -->
<g id="node7" class="node"><title>Reservation</title>
<ellipse fill="none" stroke="black" cx="387.45" cy="-18" rx="52.1934" ry="18"/>
<text text-anchor="middle" x="387.45" y="-13.8" font-family="Times,serif" font-size="14.00">Reservation</text>
</g>
<!-- User&#45;&gt;Borrowing -->
<g id="edge12" class="edge"><title>User&#45;&gt;Borrowing</title>
<path fill="none" stroke="#14076c" d="M267.465,-65.6941C263.764,-59.0504 259.708,-51.7717 255.924,-44.9793"/>
<ellipse fill="none" stroke="#14076c" cx="269.457" cy="-69.2704" rx="4.00002" ry="4.00002"/>
<polygon fill="#14076c" stroke="#14076c" points="255.857,-44.8596 254.921,-33.9337 253.424,-40.4918 250.99,-36.1239 250.99,-36.1239 250.99,-36.1239 253.424,-40.4918 247.059,-38.3141 255.857,-44.8596 255.857,-44.8596"/>
</g>
<!-- User&#45;&gt;Reservation -->
<g id="edge13" class="edge"><title>User&#45;&gt;Reservation</title>
<path fill="none" stroke="#5c0610" d="M305.804,-72.4128C320.739,-62.6428 339.763,-50.1967 355.691,-39.777"/>
<ellipse fill="none" stroke="#5c0610" cx="302.435" cy="-74.6171" rx="4.00002" ry="4.00002"/>
<polygon fill="#5c0610" stroke="#5c0610" points="355.806,-39.7014 366.638,-37.9925 359.99,-36.964 364.175,-34.2267 364.175,-34.2267 364.175,-34.2267 359.99,-36.964 361.711,-30.461 355.806,-39.7014 355.806,-39.7014"/>
</g>
<!-- ActiveRecord::Base -->
<g id="node10" class="node"><title>ActiveRecord::Base</title>
<ellipse fill="none" stroke="black" cx="306.45" cy="-252.5" rx="81.1422" ry="18"/>
<text text-anchor="middle" x="306.45" y="-248.3" font-family="Times,serif" font-size="14.00">ActiveRecord::Base</text>
</g>
<!-- ActiveRecord::Base&#45;&gt;Borrowing -->
<g id="edge2" class="edge"><title>ActiveRecord::Base&#45;&gt;Borrowing</title>
<path fill="none" stroke="black" d="M278.958,-235.344C260.595,-222.837 237.953,-203.672 227.45,-180 205.83,-131.273 224.014,-66.1895 234.827,-35.8696"/>
</g>
<!-- ActiveRecord::Base&#45;&gt;Library -->
<g id="edge6" class="edge"><title>ActiveRecord::Base&#45;&gt;Library</title>
<path fill="none" stroke="black" d="M300.087,-234.436C294.243,-218.765 285.63,-195.666 279.793,-180.011"/>
</g>
<!-- ActiveRecord::Base&#45;&gt;Publication -->
<g id="edge9" class="edge"><title>ActiveRecord::Base&#45;&gt;Publication</title>
<path fill="none" stroke="black" d="M275.244,-235.797C251.451,-222.875 218.747,-202.99 194.45,-180 171.364,-158.156 151.162,-126.937 139.906,-107.871"/>
</g>
<!-- ActiveRecord::Base&#45;&gt;Reservation -->
<g id="edge10" class="edge"><title>ActiveRecord::Base&#45;&gt;Reservation</title>
<path fill="none" stroke="black" d="M321.292,-234.467C342.307,-209.034 379.606,-158.678 392.45,-108 398.647,-83.5476 394.925,-54.1522 391.403,-36.0217"/>
</g>
<!-- ActiveRecord::Base&#45;&gt;Staff -->
<g id="edge11" class="edge"><title>ActiveRecord::Base&#45;&gt;Staff</title>
<path fill="none" stroke="black" d="M314.237,-234.435C320.559,-220.118 329.389,-199.017 335.45,-180 343.307,-155.344 349.672,-126.005 353.26,-107.941"/>
</g>
<!-- ActiveRecord::Base&#45;&gt;User -->
<g id="edge14" class="edge"><title>ActiveRecord::Base&#45;&gt;User</title>
<path fill="none" stroke="black" d="M312.988,-234.296C320.2,-212.688 329.535,-174.722 319.45,-144 314.604,-129.238 303.9,-115.203 294.93,-105.288"/>
</g>
</g>
</svg>
