<?xml version="1.0" encoding="UTF-8" standalone="no"?>
<!DOCTYPE svg PUBLIC "-//W3C//DTD SVG 1.1//EN"
 "http://www.w3.org/Graphics/SVG/1.1/DTD/svg11.dtd">
<!-- Generated by graphviz version 2.38.0 (20140413.2041)
 -->
<!-- Title: models_diagram Pages: 1 -->
<svg width="571pt" height="369pt"
 viewBox="0.00 0.00 571.11 369.00" xmlns="http://www.w3.org/2000/svg" xmlns:xlink="http://www.w3.org/1999/xlink">
<g id="graph0" class="graph" transform="scale(1 1) rotate(0) translate(4 365)">
<title>models_diagram</title>
<polygon fill="white" stroke="none" points="-4,4 -4,-365 567.113,-365 567.113,4 -4,4"/>
<!-- _diagram_info -->
<g id="node1" class="node"><title>_diagram_info</title>
<text text-anchor="start" x="8" y="-346.6" font-family="Times,serif" font-size="13.00">Models diagram</text>
<text text-anchor="start" x="8" y="-333.6" font-family="Times,serif" font-size="13.00">Date: Jul 10 2014 &#45; 19:25</text>
<text text-anchor="start" x="8" y="-320.6" font-family="Times,serif" font-size="13.00">Migration version: 20140710050706</text>
<text text-anchor="start" x="8" y="-307.6" font-family="Times,serif" font-size="13.00">Generated by RailRoady 1.1.1</text>
<text text-anchor="start" x="8" y="-294.6" font-family="Times,serif" font-size="13.00">http://railroady.prestonlee.com</text>
</g>
<!-- Book -->
<g id="node2" class="node"><title>Book</title>
<ellipse fill="none" stroke="black" cx="295.688" cy="-90" rx="29.0429" ry="18"/>
<text text-anchor="middle" x="295.688" y="-85.8" font-family="Times,serif" font-size="14.00">Book</text>
</g>
<!-- Borrowing -->
<g id="node3" class="node"><title>Borrowing</title>
<ellipse fill="none" stroke="black" cx="514.688" cy="-90" rx="48.3514" ry="18"/>
<text text-anchor="middle" x="514.688" y="-85.8" font-family="Times,serif" font-size="14.00">Borrowing</text>
</g>
<!-- Return -->
<g id="node8" class="node"><title>Return</title>
<ellipse fill="none" stroke="black" cx="322.688" cy="-18" rx="34.3527" ry="18"/>
<text text-anchor="middle" x="322.688" y="-13.8" font-family="Times,serif" font-size="14.00">Return</text>
</g>
<!-- Borrowing&#45;&gt;Return -->
<g id="edge2" class="edge"><title>Borrowing&#45;&gt;Return</title>
<path fill="none" stroke="#f64134" d="M473.559,-74.005C439.063,-61.4285 390.338,-43.664 357.686,-31.7597"/>
<ellipse fill="none" stroke="#f64134" cx="477.486" cy="-75.4368" rx="4.00001" ry="4.00001"/>
<ellipse fill="#f64134" stroke="#f64134" cx="353.916" cy="-30.3855" rx="4.00001" ry="4.00001"/>
</g>
<!-- Library -->
<g id="node4" class="node"><title>Library</title>
<ellipse fill="none" stroke="black" cx="371.688" cy="-234" rx="36.7489" ry="18"/>
<text text-anchor="middle" x="371.688" y="-229.8" font-family="Times,serif" font-size="14.00">Library</text>
</g>
<!-- Publication -->
<g id="node6" class="node"><title>Publication</title>
<ellipse fill="none" stroke="black" cx="364.688" cy="-162" rx="50.281" ry="18"/>
<text text-anchor="middle" x="364.688" y="-157.8" font-family="Times,serif" font-size="14.00">Publication</text>
</g>
<!-- Library&#45;&gt;Publication -->
<g id="edge6" class="edge"><title>Library&#45;&gt;Publication</title>
<path fill="none" stroke="#2ad905" d="M369.152,-207.64C368.594,-202.063 368.001,-196.132 367.435,-190.476"/>
<ellipse fill="none" stroke="#2ad905" cx="369.559" cy="-211.716" rx="4" ry="4"/>
<polygon fill="#2ad905" stroke="#2ad905" points="367.393,-190.055 370.876,-179.657 366.896,-185.08 366.398,-180.104 366.398,-180.104 366.398,-180.104 366.896,-185.08 361.921,-180.552 367.393,-190.055 367.393,-190.055"/>
</g>
<!-- Staff -->
<g id="node9" class="node"><title>Staff</title>
<ellipse fill="none" stroke="black" cx="268.688" cy="-162" rx="27.2842" ry="18"/>
<text text-anchor="middle" x="268.688" y="-157.8" font-family="Times,serif" font-size="14.00">Staff</text>
</g>
<!-- Library&#45;&gt;Staff -->
<g id="edge5" class="edge"><title>Library&#45;&gt;Staff</title>
<path fill="none" stroke="#9c974a" d="M343.952,-214.15C328.871,-203.901 310.308,-191.286 295.391,-181.148"/>
<ellipse fill="none" stroke="#9c974a" cx="347.536" cy="-216.586" rx="4.00002" ry="4.00002"/>
<polygon fill="#9c974a" stroke="#9c974a" points="295.354,-181.123 289.613,-171.78 291.219,-178.312 287.084,-175.502 287.084,-175.502 287.084,-175.502 291.219,-178.312 284.554,-179.224 295.354,-181.123 295.354,-181.123"/>
</g>
<!-- User -->
<g id="node10" class="node"><title>User</title>
<ellipse fill="none" stroke="black" cx="459.688" cy="-162" rx="27" ry="18"/>
<text text-anchor="middle" x="459.688" y="-157.8" font-family="Times,serif" font-size="14.00">User</text>
</g>
<!-- Library&#45;&gt;User -->
<g id="edge4" class="edge"><title>Library&#45;&gt;User</title>
<path fill="none" stroke="#6e2d1c" d="M396.849,-212.985C408.714,-203.547 422.832,-192.317 434.678,-182.894"/>
<ellipse fill="none" stroke="#6e2d1c" cx="393.481" cy="-215.665" rx="4.00002" ry="4.00002"/>
<polygon fill="#6e2d1c" stroke="#6e2d1c" points="435.012,-182.629 445.639,-179.925 438.925,-179.516 442.838,-176.404 442.838,-176.404 442.838,-176.404 438.925,-179.516 440.036,-172.882 435.012,-182.629 435.012,-182.629"/>
</g>
<!-- Magazine -->
<g id="node5" class="node"><title>Magazine</title>
<ellipse fill="none" stroke="black" cx="203.688" cy="-90" rx="44.9423" ry="18"/>
<text text-anchor="middle" x="203.688" y="-85.8" font-family="Times,serif" font-size="14.00">Magazine</text>
</g>
<!-- Publication&#45;&gt;Book -->
<g id="edge1" class="edge"><title>Publication&#45;&gt;Book</title>
<path fill="none" stroke="black" d="M348.684,-144.765C337.059,-132.971 321.457,-117.142 310.194,-105.717"/>
</g>
<!-- Publication&#45;&gt;Borrowing -->
<g id="edge9" class="edge"><title>Publication&#45;&gt;Borrowing</title>
<path fill="none" stroke="#de6f8f" d="M401.393,-143.871C424.216,-133.22 453.506,-119.552 476.586,-108.781"/>
<ellipse fill="none" stroke="#de6f8f" cx="397.59" cy="-145.646" rx="4.00002" ry="4.00002"/>
<polygon fill="#de6f8f" stroke="#de6f8f" points="476.677,-108.738 487.642,-108.587 481.208,-106.624 485.739,-104.509 485.739,-104.509 485.739,-104.509 481.208,-106.624 483.836,-100.432 476.677,-108.738 476.677,-108.738"/>
</g>
<!-- Publication&#45;&gt;Magazine -->
<g id="edge8" class="edge"><title>Publication&#45;&gt;Magazine</title>
<path fill="none" stroke="black" d="M334.026,-147.669C305.013,-135.054 261.761,-116.249 233.149,-103.809"/>
</g>
<!-- Reservation -->
<g id="node7" class="node"><title>Reservation</title>
<ellipse fill="none" stroke="black" cx="395.688" cy="-90" rx="52.1934" ry="18"/>
<text text-anchor="middle" x="395.688" y="-85.8" font-family="Times,serif" font-size="14.00">Reservation</text>
</g>
<!-- Publication&#45;&gt;Reservation -->
<g id="edge10" class="edge"><title>Publication&#45;&gt;Reservation</title>
<path fill="none" stroke="#c70c28" d="M375.517,-136.548C378.227,-130.428 381.147,-123.835 383.901,-117.616"/>
<ellipse fill="none" stroke="#c70c28" cx="373.812" cy="-140.398" rx="4.00002" ry="4.00002"/>
<polygon fill="#c70c28" stroke="#c70c28" points="383.988,-117.419 392.152,-110.097 386.013,-112.847 388.037,-108.275 388.037,-108.275 388.037,-108.275 386.013,-112.847 383.923,-106.453 383.988,-117.419 383.988,-117.419"/>
</g>
<!-- User&#45;&gt;Borrowing -->
<g id="edge15" class="edge"><title>User&#45;&gt;Borrowing</title>
<path fill="none" stroke="#54bc42" d="M476.665,-139.392C482.568,-131.879 489.233,-123.396 495.316,-115.655"/>
<ellipse fill="none" stroke="#54bc42" cx="474.093" cy="-142.666" rx="4.00002" ry="4.00002"/>
<polygon fill="#54bc42" stroke="#54bc42" points="495.445,-115.491 505.161,-110.408 498.534,-111.559 501.623,-107.628 501.623,-107.628 501.623,-107.628 498.534,-111.559 498.085,-104.848 495.445,-115.491 495.445,-115.491"/>
</g>
<!-- User&#45;&gt;Reservation -->
<g id="edge16" class="edge"><title>User&#45;&gt;Reservation</title>
<path fill="none" stroke="#613aad" d="M440.7,-140.232C433.406,-132.255 425.025,-123.088 417.487,-114.843"/>
<ellipse fill="none" stroke="#613aad" cx="443.416" cy="-143.203" rx="4.00002" ry="4.00002"/>
<polygon fill="#613aad" stroke="#613aad" points="417.33,-114.671 413.903,-104.254 413.956,-110.981 410.582,-107.29 410.582,-107.29 410.582,-107.29 413.956,-110.981 407.261,-110.327 417.33,-114.671 417.33,-114.671"/>
</g>
<!-- ActiveRecord::Base -->
<g id="node11" class="node"><title>ActiveRecord::Base</title>
<ellipse fill="none" stroke="black" cx="306.688" cy="-324.5" rx="81.1422" ry="18"/>
<text text-anchor="middle" x="306.688" y="-320.3" font-family="Times,serif" font-size="14.00">ActiveRecord::Base</text>
</g>
<!-- ActiveRecord::Base&#45;&gt;Borrowing -->
<g id="edge3" class="edge"><title>ActiveRecord::Base&#45;&gt;Borrowing</title>
<path fill="none" stroke="black" d="M345.225,-308.537C373.84,-296.199 412.756,-276.727 441.688,-252 472.096,-226.012 479.125,-216.41 495.688,-180 506.417,-156.414 511.197,-126.522 513.247,-108.083"/>
</g>
<!-- ActiveRecord::Base&#45;&gt;Library -->
<g id="edge7" class="edge"><title>ActiveRecord::Base&#45;&gt;Library</title>
<path fill="none" stroke="black" d="M319.22,-306.436C330.952,-290.464 348.35,-266.775 359.851,-251.117"/>
</g>
<!-- ActiveRecord::Base&#45;&gt;Publication -->
<g id="edge11" class="edge"><title>ActiveRecord::Base&#45;&gt;Publication</title>
<path fill="none" stroke="black" d="M307.314,-306.432C308.64,-284.637 312.779,-246.14 325.688,-216 331.445,-202.558 341.195,-189.308 349.506,-179.419"/>
</g>
<!-- ActiveRecord::Base&#45;&gt;Reservation -->
<g id="edge12" class="edge"><title>ActiveRecord::Base&#45;&gt;Reservation</title>
<path fill="none" stroke="black" d="M289.505,-306.84C257.214,-273.492 194.058,-197.18 232.688,-144 236.48,-138.779 310.002,-116.29 356.995,-102.338"/>
</g>
<!-- ActiveRecord::Base&#45;&gt;Return -->
<g id="edge13" class="edge"><title>ActiveRecord::Base&#45;&gt;Return</title>
<path fill="none" stroke="black" d="M282.158,-307.035C224.02,-266.003 87.2533,-156.426 149.688,-72 181.533,-28.9375 247.698,-19.726 288.342,-18.3765"/>
</g>
<!-- ActiveRecord::Base&#45;&gt;Staff -->
<g id="edge14" class="edge"><title>ActiveRecord::Base&#45;&gt;Staff</title>
<path fill="none" stroke="black" d="M302.621,-306.324C295.307,-275.432 280.018,-210.855 272.725,-180.053"/>
</g>
<!-- ActiveRecord::Base&#45;&gt;User -->
<g id="edge17" class="edge"><title>ActiveRecord::Base&#45;&gt;User</title>
<path fill="none" stroke="black" d="M340.608,-308.023C364.649,-295.663 396.307,-276.391 417.688,-252 436.496,-230.544 448.639,-199.207 454.808,-180.012"/>
</g>
</g>
</svg>
