<?xml version="1.0" encoding="UTF-8" standalone="no"?>
<!DOCTYPE svg PUBLIC "-//W3C//DTD SVG 1.1//EN"
 "http://www.w3.org/Graphics/SVG/1.1/DTD/svg11.dtd">
<!-- Generated by graphviz version 2.38.0 (20140413.2041)
 -->
<!-- Title: models_diagram Pages: 1 -->
<svg width="727pt" height="797pt"
 viewBox="0.00 0.00 726.58 797.00" xmlns="http://www.w3.org/2000/svg" xmlns:xlink="http://www.w3.org/1999/xlink">
<g id="graph0" class="graph" transform="scale(1 1) rotate(0) translate(4 793)">
<title>models_diagram</title>
<polygon fill="white" stroke="none" points="-4,4 -4,-793 722.579,-793 722.579,4 -4,4"/>
<!-- _diagram_info -->
<g id="node1" class="node"><title>_diagram_info</title>
<text text-anchor="start" x="8" y="-774.6" font-family="Times,serif" font-size="13.00">Models diagram</text>
<text text-anchor="start" x="8" y="-761.6" font-family="Times,serif" font-size="13.00">Date: Jul 10 2014 &#45; 19:25</text>
<text text-anchor="start" x="8" y="-748.6" font-family="Times,serif" font-size="13.00">Migration version: 20140710050706</text>
<text text-anchor="start" x="8" y="-735.6" font-family="Times,serif" font-size="13.00">Generated by RailRoady 1.1.1</text>
<text text-anchor="start" x="8" y="-722.6" font-family="Times,serif" font-size="13.00">http://railroady.prestonlee.com</text>
</g>
<!-- Book -->
<g id="node2" class="node"><title>Book</title>
<path fill="none" stroke="black" d="M294.182,-130.5C294.182,-130.5 403.193,-130.5 403.193,-130.5 409.193,-130.5 415.193,-136.5 415.193,-142.5 415.193,-142.5 415.193,-302.5 415.193,-302.5 415.193,-308.5 409.193,-314.5 403.193,-314.5 403.193,-314.5 294.182,-314.5 294.182,-314.5 288.182,-314.5 282.182,-308.5 282.182,-302.5 282.182,-302.5 282.182,-142.5 282.182,-142.5 282.182,-136.5 288.182,-130.5 294.182,-130.5"/>
<text text-anchor="middle" x="348.688" y="-299.3" font-family="Times,serif" font-size="14.00">Book</text>
<polyline fill="none" stroke="black" points="282.182,-292.5 415.193,-292.5 "/>
<text text-anchor="start" x="290.182" y="-277.3" font-family="Times,serif" font-size="14.00">id :integer</text>
<text text-anchor="start" x="290.182" y="-263.3" font-family="Times,serif" font-size="14.00">library_id :integer</text>
<text text-anchor="start" x="290.182" y="-249.3" font-family="Times,serif" font-size="14.00">age_limit :integer</text>
<text text-anchor="start" x="290.182" y="-235.3" font-family="Times,serif" font-size="14.00">status :integer</text>
<text text-anchor="start" x="290.182" y="-221.3" font-family="Times,serif" font-size="14.00">author :string</text>
<text text-anchor="start" x="290.182" y="-207.3" font-family="Times,serif" font-size="14.00">name :string</text>
<text text-anchor="start" x="290.182" y="-193.3" font-family="Times,serif" font-size="14.00">count :integer</text>
<text text-anchor="start" x="290.182" y="-179.3" font-family="Times,serif" font-size="14.00">stock :integer</text>
<text text-anchor="start" x="290.182" y="-165.3" font-family="Times,serif" font-size="14.00">isbn :string</text>
<text text-anchor="start" x="290.182" y="-151.3" font-family="Times,serif" font-size="14.00">created_at :datetime</text>
<text text-anchor="start" x="290.182" y="-137.3" font-family="Times,serif" font-size="14.00">updated_at :datetime</text>
</g>
<!-- Borrowing -->
<g id="node3" class="node"><title>Borrowing</title>
<path fill="none" stroke="black" d="M596.796,-144.5C596.796,-144.5 706.579,-144.5 706.579,-144.5 712.579,-144.5 718.579,-150.5 718.579,-156.5 718.579,-156.5 718.579,-288.5 718.579,-288.5 718.579,-294.5 712.579,-300.5 706.579,-300.5 706.579,-300.5 596.796,-300.5 596.796,-300.5 590.796,-300.5 584.796,-294.5 584.796,-288.5 584.796,-288.5 584.796,-156.5 584.796,-156.5 584.796,-150.5 590.796,-144.5 596.796,-144.5"/>
<text text-anchor="middle" x="651.688" y="-285.3" font-family="Times,serif" font-size="14.00">Borrowing</text>
<polyline fill="none" stroke="black" points="584.796,-278.5 718.579,-278.5 "/>
<text text-anchor="start" x="592.796" y="-263.3" font-family="Times,serif" font-size="14.00">id :integer</text>
<text text-anchor="start" x="592.796" y="-249.3" font-family="Times,serif" font-size="14.00">user_id :integer</text>
<text text-anchor="start" x="592.796" y="-235.3" font-family="Times,serif" font-size="14.00">expire_at :datetime</text>
<text text-anchor="start" x="592.796" y="-221.3" font-family="Times,serif" font-size="14.00">created_at :datetime</text>
<text text-anchor="start" x="592.796" y="-207.3" font-family="Times,serif" font-size="14.00">updated_at :datetime</text>
<text text-anchor="start" x="592.796" y="-193.3" font-family="Times,serif" font-size="14.00">expired_at :datetime</text>
<text text-anchor="start" x="592.796" y="-179.3" font-family="Times,serif" font-size="14.00">book_id :integer</text>
<text text-anchor="start" x="592.796" y="-165.3" font-family="Times,serif" font-size="14.00">magazine_id :integer</text>
<text text-anchor="start" x="592.796" y="-151.3" font-family="Times,serif" font-size="14.00">return_id :integer</text>
</g>
<!-- Return -->
<g id="node8" class="node"><title>Return</title>
<path fill="none" stroke="black" d="M319.451,-0.5C319.451,-0.5 433.924,-0.5 433.924,-0.5 439.924,-0.5 445.924,-6.5 445.924,-12.5 445.924,-12.5 445.924,-74.5 445.924,-74.5 445.924,-80.5 439.924,-86.5 433.924,-86.5 433.924,-86.5 319.451,-86.5 319.451,-86.5 313.451,-86.5 307.451,-80.5 307.451,-74.5 307.451,-74.5 307.451,-12.5 307.451,-12.5 307.451,-6.5 313.451,-0.5 319.451,-0.5"/>
<text text-anchor="middle" x="376.688" y="-71.3" font-family="Times,serif" font-size="14.00">Return</text>
<polyline fill="none" stroke="black" points="307.451,-64.5 445.924,-64.5 "/>
<text text-anchor="start" x="315.451" y="-49.3" font-family="Times,serif" font-size="14.00">id :integer</text>
<text text-anchor="start" x="315.451" y="-35.3" font-family="Times,serif" font-size="14.00">borrowing_id :integer</text>
<text text-anchor="start" x="315.451" y="-21.3" font-family="Times,serif" font-size="14.00">created_at :datetime</text>
<text text-anchor="start" x="315.451" y="-7.3" font-family="Times,serif" font-size="14.00">updated_at :datetime</text>
</g>
<!-- Borrowing&#45;&gt;Return -->
<g id="edge2" class="edge"><title>Borrowing&#45;&gt;Return</title>
<path fill="none" stroke="#65988a" d="M593.544,-138.649C587.873,-132.979 581.903,-127.673 575.688,-123 539.648,-95.9036 493.035,-76.8527 453.983,-64.3102"/>
<ellipse fill="none" stroke="#65988a" cx="596.338" cy="-141.549" rx="4.00002" ry="4.00002"/>
<ellipse fill="#65988a" stroke="#65988a" cx="450.095" cy="-63.0878" rx="4.00001" ry="4.00001"/>
</g>
<!-- Library -->
<g id="node4" class="node"><title>Library</title>
<path fill="none" stroke="black" d="M347.182,-579.5C347.182,-579.5 456.193,-579.5 456.193,-579.5 462.193,-579.5 468.193,-585.5 468.193,-591.5 468.193,-591.5 468.193,-667.5 468.193,-667.5 468.193,-673.5 462.193,-679.5 456.193,-679.5 456.193,-679.5 347.182,-679.5 347.182,-679.5 341.182,-679.5 335.182,-673.5 335.182,-667.5 335.182,-667.5 335.182,-591.5 335.182,-591.5 335.182,-585.5 341.182,-579.5 347.182,-579.5"/>
<text text-anchor="middle" x="401.688" y="-664.3" font-family="Times,serif" font-size="14.00">Library</text>
<polyline fill="none" stroke="black" points="335.182,-657.5 468.193,-657.5 "/>
<text text-anchor="start" x="343.182" y="-642.3" font-family="Times,serif" font-size="14.00">id :integer</text>
<text text-anchor="start" x="343.182" y="-628.3" font-family="Times,serif" font-size="14.00">name :string</text>
<text text-anchor="start" x="343.182" y="-614.3" font-family="Times,serif" font-size="14.00">created_at :datetime</text>
<text text-anchor="start" x="343.182" y="-600.3" font-family="Times,serif" font-size="14.00">updated_at :datetime</text>
<text text-anchor="start" x="343.182" y="-586.3" font-family="Times,serif" font-size="14.00">subdomain :string</text>
</g>
<!-- Publication -->
<g id="node6" class="node"><title>Publication</title>
<path fill="none" stroke="black" d="M347.182,-358.5C347.182,-358.5 456.193,-358.5 456.193,-358.5 462.193,-358.5 468.193,-364.5 468.193,-370.5 468.193,-370.5 468.193,-530.5 468.193,-530.5 468.193,-536.5 462.193,-542.5 456.193,-542.5 456.193,-542.5 347.182,-542.5 347.182,-542.5 341.182,-542.5 335.182,-536.5 335.182,-530.5 335.182,-530.5 335.182,-370.5 335.182,-370.5 335.182,-364.5 341.182,-358.5 347.182,-358.5"/>
<text text-anchor="middle" x="401.688" y="-527.3" font-family="Times,serif" font-size="14.00">Publication</text>
<polyline fill="none" stroke="black" points="335.182,-520.5 468.193,-520.5 "/>
<text text-anchor="start" x="343.182" y="-505.3" font-family="Times,serif" font-size="14.00">id :integer</text>
<text text-anchor="start" x="343.182" y="-491.3" font-family="Times,serif" font-size="14.00">library_id :integer</text>
<text text-anchor="start" x="343.182" y="-477.3" font-family="Times,serif" font-size="14.00">age_limit :integer</text>
<text text-anchor="start" x="343.182" y="-463.3" font-family="Times,serif" font-size="14.00">status :integer</text>
<text text-anchor="start" x="343.182" y="-449.3" font-family="Times,serif" font-size="14.00">created_at :datetime</text>
<text text-anchor="start" x="343.182" y="-435.3" font-family="Times,serif" font-size="14.00">updated_at :datetime</text>
<text text-anchor="start" x="343.182" y="-421.3" font-family="Times,serif" font-size="14.00">author :string</text>
<text text-anchor="start" x="343.182" y="-407.3" font-family="Times,serif" font-size="14.00">name :string</text>
<text text-anchor="start" x="343.182" y="-393.3" font-family="Times,serif" font-size="14.00">count :integer</text>
<text text-anchor="start" x="343.182" y="-379.3" font-family="Times,serif" font-size="14.00">stock :integer</text>
<text text-anchor="start" x="343.182" y="-365.3" font-family="Times,serif" font-size="14.00">category :string</text>
</g>
<!-- Library&#45;&gt;Publication -->
<g id="edge6" class="edge"><title>Library&#45;&gt;Publication</title>
<path fill="none" stroke="#352995" d="M401.688,-570.973C401.688,-565.129 401.688,-559.078 401.688,-552.943"/>
<ellipse fill="none" stroke="#352995" cx="401.688" cy="-575.196" rx="4" ry="4"/>
<polygon fill="#352995" stroke="#352995" points="401.688,-552.56 406.188,-542.56 401.688,-547.56 401.688,-542.56 401.688,-542.56 401.688,-542.56 401.688,-547.56 397.188,-542.56 401.688,-552.56 401.688,-552.56"/>
</g>
<!-- Staff -->
<g id="node9" class="node"><title>Staff</title>
<path fill="none" stroke="black" d="M180.386,-386.5C180.386,-386.5 304.99,-386.5 304.99,-386.5 310.99,-386.5 316.99,-392.5 316.99,-398.5 316.99,-398.5 316.99,-502.5 316.99,-502.5 316.99,-508.5 310.99,-514.5 304.99,-514.5 304.99,-514.5 180.386,-514.5 180.386,-514.5 174.386,-514.5 168.386,-508.5 168.386,-502.5 168.386,-502.5 168.386,-398.5 168.386,-398.5 168.386,-392.5 174.386,-386.5 180.386,-386.5"/>
<text text-anchor="middle" x="242.688" y="-499.3" font-family="Times,serif" font-size="14.00">Staff</text>
<polyline fill="none" stroke="black" points="168.386,-492.5 316.99,-492.5 "/>
<text text-anchor="start" x="176.386" y="-477.3" font-family="Times,serif" font-size="14.00">id :integer</text>
<text text-anchor="start" x="176.386" y="-463.3" font-family="Times,serif" font-size="14.00">name :string</text>
<text text-anchor="start" x="176.386" y="-449.3" font-family="Times,serif" font-size="14.00">library_id :integer</text>
<text text-anchor="start" x="176.386" y="-435.3" font-family="Times,serif" font-size="14.00">login_id :string</text>
<text text-anchor="start" x="176.386" y="-421.3" font-family="Times,serif" font-size="14.00">created_at :datetime</text>
<text text-anchor="start" x="176.386" y="-407.3" font-family="Times,serif" font-size="14.00">updated_at :datetime</text>
<text text-anchor="start" x="176.386" y="-393.3" font-family="Times,serif" font-size="14.00">password_digest :string</text>
</g>
<!-- Library&#45;&gt;Staff -->
<g id="edge5" class="edge"><title>Library&#45;&gt;Staff</title>
<path fill="none" stroke="#9bba28" d="M351.85,-573.021C337.456,-556.997 321.547,-539.287 306.43,-522.458"/>
<ellipse fill="none" stroke="#9bba28" cx="354.724" cy="-576.22" rx="4.00002" ry="4.00002"/>
<polygon fill="#9bba28" stroke="#9bba28" points="306.231,-522.237 302.896,-511.79 302.89,-518.517 299.548,-514.798 299.548,-514.798 299.548,-514.798 302.89,-518.517 296.201,-517.805 306.231,-522.237 306.231,-522.237"/>
</g>
<!-- User -->
<g id="node10" class="node"><title>User</title>
<path fill="none" stroke="black" d="M498.386,-379.5C498.386,-379.5 622.99,-379.5 622.99,-379.5 628.99,-379.5 634.99,-385.5 634.99,-391.5 634.99,-391.5 634.99,-509.5 634.99,-509.5 634.99,-515.5 628.99,-521.5 622.99,-521.5 622.99,-521.5 498.386,-521.5 498.386,-521.5 492.386,-521.5 486.386,-515.5 486.386,-509.5 486.386,-509.5 486.386,-391.5 486.386,-391.5 486.386,-385.5 492.386,-379.5 498.386,-379.5"/>
<text text-anchor="middle" x="560.688" y="-506.3" font-family="Times,serif" font-size="14.00">User</text>
<polyline fill="none" stroke="black" points="486.386,-499.5 634.99,-499.5 "/>
<text text-anchor="start" x="494.386" y="-484.3" font-family="Times,serif" font-size="14.00">id :integer</text>
<text text-anchor="start" x="494.386" y="-470.3" font-family="Times,serif" font-size="14.00">name :string</text>
<text text-anchor="start" x="494.386" y="-456.3" font-family="Times,serif" font-size="14.00">library_id :integer</text>
<text text-anchor="start" x="494.386" y="-442.3" font-family="Times,serif" font-size="14.00">login_id :string</text>
<text text-anchor="start" x="494.386" y="-428.3" font-family="Times,serif" font-size="14.00">age :integer</text>
<text text-anchor="start" x="494.386" y="-414.3" font-family="Times,serif" font-size="14.00">created_at :datetime</text>
<text text-anchor="start" x="494.386" y="-400.3" font-family="Times,serif" font-size="14.00">updated_at :datetime</text>
<text text-anchor="start" x="494.386" y="-386.3" font-family="Times,serif" font-size="14.00">password_digest :string</text>
</g>
<!-- Library&#45;&gt;User -->
<g id="edge4" class="edge"><title>Library&#45;&gt;User</title>
<path fill="none" stroke="#46110d" d="M451.692,-572.835C464.095,-559.028 477.615,-543.977 490.778,-529.324"/>
<ellipse fill="none" stroke="#46110d" cx="448.651" cy="-576.22" rx="4.00002" ry="4.00002"/>
<polygon fill="#46110d" stroke="#46110d" points="490.939,-529.145 500.97,-524.713 494.281,-525.425 497.622,-521.705 497.622,-521.705 497.622,-521.705 494.281,-525.425 494.274,-518.698 490.939,-529.145 490.939,-529.145"/>
</g>
<!-- Magazine -->
<g id="node5" class="node"><title>Magazine</title>
<path fill="none" stroke="black" d="M143.182,-123.5C143.182,-123.5 252.193,-123.5 252.193,-123.5 258.193,-123.5 264.193,-129.5 264.193,-135.5 264.193,-135.5 264.193,-309.5 264.193,-309.5 264.193,-315.5 258.193,-321.5 252.193,-321.5 252.193,-321.5 143.182,-321.5 143.182,-321.5 137.182,-321.5 131.182,-315.5 131.182,-309.5 131.182,-309.5 131.182,-135.5 131.182,-135.5 131.182,-129.5 137.182,-123.5 143.182,-123.5"/>
<text text-anchor="middle" x="197.688" y="-306.3" font-family="Times,serif" font-size="14.00">Magazine</text>
<polyline fill="none" stroke="black" points="131.182,-299.5 264.193,-299.5 "/>
<text text-anchor="start" x="139.182" y="-284.3" font-family="Times,serif" font-size="14.00">id :integer</text>
<text text-anchor="start" x="139.182" y="-270.3" font-family="Times,serif" font-size="14.00">library_id :integer</text>
<text text-anchor="start" x="139.182" y="-256.3" font-family="Times,serif" font-size="14.00">age_limit :integer</text>
<text text-anchor="start" x="139.182" y="-242.3" font-family="Times,serif" font-size="14.00">status :integer</text>
<text text-anchor="start" x="139.182" y="-228.3" font-family="Times,serif" font-size="14.00">author :string</text>
<text text-anchor="start" x="139.182" y="-214.3" font-family="Times,serif" font-size="14.00">name :string</text>
<text text-anchor="start" x="139.182" y="-200.3" font-family="Times,serif" font-size="14.00">count :integer</text>
<text text-anchor="start" x="139.182" y="-186.3" font-family="Times,serif" font-size="14.00">stock :integer</text>
<text text-anchor="start" x="139.182" y="-172.3" font-family="Times,serif" font-size="14.00">issn :string</text>
<text text-anchor="start" x="139.182" y="-158.3" font-family="Times,serif" font-size="14.00">interval :integer</text>
<text text-anchor="start" x="139.182" y="-144.3" font-family="Times,serif" font-size="14.00">created_at :datetime</text>
<text text-anchor="start" x="139.182" y="-130.3" font-family="Times,serif" font-size="14.00">updated_at :datetime</text>
</g>
<!-- Publication&#45;&gt;Book -->
<g id="edge1" class="edge"><title>Publication&#45;&gt;Book</title>
<path fill="none" stroke="black" d="M380.283,-358.229C376.922,-343.895 373.447,-329.077 370.086,-314.745"/>
</g>
<!-- Publication&#45;&gt;Borrowing -->
<g id="edge9" class="edge"><title>Publication&#45;&gt;Borrowing</title>
<path fill="none" stroke="#6dafa9" d="M474.7,-360.17C475.69,-359.431 476.686,-358.707 477.688,-358 515.591,-331.234 538.272,-349.443 575.688,-322 581.435,-317.784 586.964,-313.019 592.234,-307.915"/>
<ellipse fill="none" stroke="#6dafa9" cx="471.393" cy="-362.779" rx="4.00002" ry="4.00002"/>
<polygon fill="#6dafa9" stroke="#6dafa9" points="592.25,-307.9 602.468,-303.92 595.754,-304.333 599.258,-300.766 599.258,-300.766 599.258,-300.766 595.754,-304.333 596.048,-297.612 592.25,-307.9 592.25,-307.9"/>
</g>
<!-- Publication&#45;&gt;Magazine -->
<g id="edge8" class="edge"><title>Publication&#45;&gt;Magazine</title>
<path fill="none" stroke="black" d="M334.803,-366.666C331.789,-363.677 328.746,-360.776 325.688,-358 304.605,-338.859 293.36,-341.583 272.688,-322 269.879,-319.339 267.095,-316.566 264.345,-313.709"/>
</g>
<!-- Reservation -->
<g id="node7" class="node"><title>Reservation</title>
<path fill="none" stroke="black" d="M444.796,-151.5C444.796,-151.5 554.579,-151.5 554.579,-151.5 560.579,-151.5 566.579,-157.5 566.579,-163.5 566.579,-163.5 566.579,-281.5 566.579,-281.5 566.579,-287.5 560.579,-293.5 554.579,-293.5 554.579,-293.5 444.796,-293.5 444.796,-293.5 438.796,-293.5 432.796,-287.5 432.796,-281.5 432.796,-281.5 432.796,-163.5 432.796,-163.5 432.796,-157.5 438.796,-151.5 444.796,-151.5"/>
<text text-anchor="middle" x="499.688" y="-278.3" font-family="Times,serif" font-size="14.00">Reservation</text>
<polyline fill="none" stroke="black" points="432.796,-271.5 566.579,-271.5 "/>
<text text-anchor="start" x="440.796" y="-256.3" font-family="Times,serif" font-size="14.00">id :integer</text>
<text text-anchor="start" x="440.796" y="-242.3" font-family="Times,serif" font-size="14.00">user_id :integer</text>
<text text-anchor="start" x="440.796" y="-228.3" font-family="Times,serif" font-size="14.00">expire_at :datetime</text>
<text text-anchor="start" x="440.796" y="-214.3" font-family="Times,serif" font-size="14.00">created_at :datetime</text>
<text text-anchor="start" x="440.796" y="-200.3" font-family="Times,serif" font-size="14.00">updated_at :datetime</text>
<text text-anchor="start" x="440.796" y="-186.3" font-family="Times,serif" font-size="14.00">expired_at :datetime</text>
<text text-anchor="start" x="440.796" y="-172.3" font-family="Times,serif" font-size="14.00">book_id :integer</text>
<text text-anchor="start" x="440.796" y="-158.3" font-family="Times,serif" font-size="14.00">magazine_id :integer</text>
</g>
<!-- Publication&#45;&gt;Reservation -->
<g id="edge10" class="edge"><title>Publication&#45;&gt;Reservation</title>
<path fill="none" stroke="#10b426" d="M444.459,-350.864C451.39,-334.88 458.49,-318.506 465.193,-303.05"/>
<ellipse fill="none" stroke="#10b426" cx="442.857" cy="-354.559" rx="4.00002" ry="4.00002"/>
<polygon fill="#10b426" stroke="#10b426" points="465.331,-302.731 473.438,-295.347 467.32,-298.144 469.309,-293.557 469.309,-293.557 469.309,-293.557 467.32,-298.144 465.181,-291.766 465.331,-302.731 465.331,-302.731"/>
</g>
<!-- User&#45;&gt;Borrowing -->
<g id="edge15" class="edge"><title>User&#45;&gt;Borrowing</title>
<path fill="none" stroke="#bd422a" d="M592.072,-371.557C600.028,-351.798 608.623,-330.451 616.744,-310.284"/>
<ellipse fill="none" stroke="#bd422a" cx="590.476" cy="-375.521" rx="4.00001" ry="4.00001"/>
<polygon fill="#bd422a" stroke="#bd422a" points="616.826,-310.078 624.736,-302.483 618.694,-305.44 620.562,-300.802 620.562,-300.802 620.562,-300.802 618.694,-305.44 616.387,-299.121 616.826,-310.078 616.826,-310.078"/>
</g>
<!-- User&#45;&gt;Reservation -->
<g id="edge16" class="edge"><title>User&#45;&gt;Reservation</title>
<path fill="none" stroke="#f4c6ae" d="M539.63,-371.482C533.691,-349.481 527.223,-325.517 521.256,-303.407"/>
<ellipse fill="none" stroke="#f4c6ae" cx="540.679" cy="-375.369" rx="4.00001" ry="4.00001"/>
<polygon fill="#f4c6ae" stroke="#f4c6ae" points="521.248,-303.38 522.987,-292.553 519.945,-298.553 518.642,-293.726 518.642,-293.726 518.642,-293.726 519.945,-298.553 514.298,-294.898 521.248,-303.38 521.248,-303.38"/>
</g>
<!-- ActiveRecord::Base -->
<g id="node11" class="node"><title>ActiveRecord::Base</title>
<ellipse fill="none" stroke="black" cx="306.688" cy="-752.5" rx="81.1422" ry="18"/>
<text text-anchor="middle" x="306.688" y="-748.3" font-family="Times,serif" font-size="14.00">ActiveRecord::Base</text>
</g>
<!-- ActiveRecord::Base&#45;&gt;Borrowing -->
<g id="edge3" class="edge"><title>ActiveRecord::Base&#45;&gt;Borrowing</title>
<path fill="none" stroke="black" d="M366.02,-739.972C410.624,-729.371 471.847,-710.57 518.688,-680 587.713,-634.952 612.936,-619.474 643.688,-543 675.05,-465.008 672.094,-367.43 664.454,-300.763"/>
</g>
<!-- ActiveRecord::Base&#45;&gt;Library -->
<g id="edge7" class="edge"><title>ActiveRecord::Base&#45;&gt;Library</title>
<path fill="none" stroke="black" d="M319.897,-734.675C331.113,-720.389 347.792,-699.146 363.167,-679.563"/>
</g>
<!-- ActiveRecord::Base&#45;&gt;Publication -->
<g id="edge11" class="edge"><title>ActiveRecord::Base&#45;&gt;Publication</title>
<path fill="none" stroke="black" d="M306.201,-734.337C305.818,-702.729 307.388,-633.559 325.688,-579 329.785,-566.784 335.181,-554.476 341.212,-542.578"/>
</g>
<!-- ActiveRecord::Base&#45;&gt;Reservation -->
<g id="edge12" class="edge"><title>ActiveRecord::Base&#45;&gt;Reservation</title>
<path fill="none" stroke="black" d="M289.851,-734.78C232.774,-676.135 55.8302,-476.92 159.688,-358 237.873,-268.475 321.986,-381.833 424.688,-322 436.945,-314.859 447.867,-304.853 457.328,-293.934"/>
</g>
<!-- ActiveRecord::Base&#45;&gt;Return -->
<g id="edge13" class="edge"><title>ActiveRecord::Base&#45;&gt;Return</title>
<path fill="none" stroke="black" d="M269.354,-736.347C232.904,-720.886 180.908,-696.836 166.688,-680 6.42786,-490.262 -25.8509,-322.79 121.688,-123 143.908,-92.9109 239.578,-69.544 307.182,-56.3929"/>
</g>
<!-- ActiveRecord::Base&#45;&gt;Staff -->
<g id="edge14" class="edge"><title>ActiveRecord::Base&#45;&gt;Staff</title>
<path fill="none" stroke="black" d="M303.063,-734.511C294.205,-692.987 271.092,-584.643 256.169,-514.696"/>
</g>
<!-- ActiveRecord::Base&#45;&gt;User -->
<g id="edge17" class="edge"><title>ActiveRecord::Base&#45;&gt;User</title>
<path fill="none" stroke="black" d="M364.683,-739.863C401.456,-729.738 447.6,-711.556 477.688,-680 518.973,-636.701 539.985,-571.295 550.518,-521.539"/>
</g>
</g>
</svg>
